<svg width="1920" height="56" viewBox="0 0 1920 56" fill="none" xmlns="http://www.w3.org/2000/svg">
<rect width="1920" height="56" fill="#011627"/>
<g clip-path="url(#clip0_406_181)">
<path d="M39.9699 19.3931C40.9034 20.3421 41.3691 21.659 41.367 23.3438V30.7059H37.4981V23.8643C37.5467 23.1789 37.3193 22.5024 36.866 21.983C36.3722 21.5526 35.7374 21.3153 35.0801 21.3153C34.4229 21.3153 33.7881 21.5526 33.2943 21.983C33.067 22.239 32.8928 22.5369 32.7816 22.8597C32.6704 23.1825 32.6244 23.5239 32.6463 23.8643V30.7059H28.7617V23.8643C28.7832 23.5236 28.7367 23.1821 28.625 22.8593C28.5133 22.5365 28.3385 22.2387 28.1106 21.983C27.6168 21.5526 26.982 21.3153 26.3247 21.3153C25.6675 21.3153 25.0327 21.5526 24.5389 21.983C24.0855 22.5024 23.8582 23.1789 23.9067 23.8643V30.7059H19.9937V18.1075H23.8846V19.6753C24.2907 19.14 24.8209 18.7098 25.4302 18.4211C26.106 18.1057 26.8455 17.948 27.5922 17.9601C28.4838 17.9447 29.3647 18.154 30.1525 18.5684C30.8968 18.9683 31.5091 19.5725 31.9162 20.3086C32.367 19.6068 32.9846 19.0254 33.7147 18.6155C34.4671 18.1792 35.3244 17.9528 36.1959 17.9601C37.7784 17.9748 39.0364 18.4524 39.9699 19.3931Z" fill="#DF1B50"/>
<path d="M56.3649 25.3316H47.5589C47.5705 26.0045 47.8433 26.647 48.3207 27.1251C48.7665 27.5407 49.359 27.7659 49.9706 27.7522C50.3938 27.783 50.8162 27.6825 51.1793 27.4645C51.5423 27.2465 51.828 26.9219 51.9967 26.5357H56.1373C55.9292 27.356 55.537 28.1191 54.99 28.7681C54.4262 29.4425 53.7135 29.9789 52.907 30.3359C52.0254 30.722 51.0701 30.9145 50.1065 30.9003C48.9495 30.9211 47.8062 30.6492 46.7845 30.1101C45.8227 29.5906 45.0325 28.8067 44.5088 27.8526C43.9445 26.7922 43.6658 25.6052 43.6996 24.4067C43.6716 23.213 43.9489 22.0318 44.5056 20.9733C45.0231 20.0178 45.8109 19.2331 46.7719 18.7157C47.7975 18.2 48.9304 17.9294 50.0802 17.9256C51.23 17.9218 52.3648 18.1848 53.3938 18.6938C54.3389 19.1951 55.1173 19.9575 55.6348 20.8886C56.1921 21.9053 56.471 23.0491 56.4439 24.206C56.4402 24.5824 56.4138 24.9583 56.3649 25.3316V25.3316ZM52.4519 23.187C52.4626 22.8917 52.4069 22.5978 52.2888 22.3266C52.1707 22.0555 51.9932 21.8138 51.7691 21.6192C51.2933 21.2204 50.6849 21.0114 50.0623 21.0329C49.4613 21.0146 48.8743 21.2153 48.4124 21.5973C47.9448 22.0108 47.6485 22.5817 47.5811 23.1995L52.4519 23.187Z" fill="#DF1B50"/>
<path d="M87.4292 25.2878C86.303 25.2791 85.2093 25.6618 84.3379 26.3696C83.6846 26.9371 82.8569 27.2686 81.9894 27.3102C81.3208 27.3098 80.6616 27.1541 80.0645 26.8556C79.6929 26.651 79.3593 26.3849 79.0783 26.0686C78.3324 25.2324 77.9605 24.1256 77.9626 22.7481C77.9647 21.3706 78.3366 20.2648 79.0783 19.4307C79.3597 19.1127 79.6944 18.8453 80.0677 18.6406C80.6634 18.342 81.3219 18.1872 81.9894 18.1891C82.869 18.2336 83.7067 18.5755 84.3632 19.1579C85.1543 19.8358 86.1626 20.2125 87.2079 20.2209H87.3533C87.62 20.2204 87.8818 20.1491 88.1114 20.0144C88.341 19.8797 88.53 19.6866 88.659 19.455C88.788 19.2234 88.8522 18.9618 88.8449 18.6973C88.8376 18.4328 88.7591 18.175 88.6176 17.9508C88.1604 17.2562 87.5812 16.6487 86.9076 16.1573C85.4928 15.1439 83.7812 14.6206 82.0368 14.6679C80.5859 14.6435 79.1538 14.997 77.8836 15.6932C76.6815 16.3642 75.6953 17.3588 75.0389 18.5622C74.3659 19.8548 74.0147 21.2885 74.0147 22.7434C74.0147 24.1982 74.3659 25.6319 75.0389 26.9246C75.6976 28.123 76.6835 29.113 77.8836 29.781L78.0005 29.8437V34.6003C78.0005 35.4585 77.6568 36.2815 77.0451 36.8883C76.4334 37.4952 75.6037 37.8361 74.7386 37.8361C73.8735 37.8361 73.0438 37.4952 72.432 36.8883C71.8203 36.2815 71.4766 35.4585 71.4766 34.6003V15.9284C71.4564 15.43 71.2426 14.9587 70.8799 14.6132C70.5173 14.2677 70.034 14.0747 69.5312 14.0747C69.0284 14.0747 68.545 14.2677 68.1824 14.6132C67.8198 14.9587 67.606 15.43 67.5857 15.9284V19.8446C67.1757 19.2453 66.6144 18.7631 65.9579 18.4462C65.2473 18.0955 64.4631 17.9172 63.6695 17.9257C62.6646 17.9141 61.6774 18.1883 60.8248 18.7158C59.9545 19.2673 59.257 20.0493 58.8113 20.9734C58.3238 22.0468 58.0717 23.2106 58.0717 24.3879C58.0717 25.5652 58.3238 26.7291 58.8113 27.8025C59.2564 28.7337 59.9534 29.524 60.8248 30.0851C61.6754 30.6183 62.6633 30.896 63.6695 30.8847C64.489 30.9039 65.3001 30.7173 66.0274 30.3423C66.67 30.0118 67.2089 29.5129 67.5857 28.8999V34.9138C67.5857 36.7957 68.3393 38.6005 69.6807 39.9312C71.0222 41.2619 72.8415 42.0094 74.7386 42.0094C76.6356 42.0094 78.455 41.2619 79.7964 39.9312C81.1378 38.6005 81.8914 36.7957 81.8914 34.9138V30.8377H82.0368C83.7796 30.8836 85.4898 30.3639 86.9076 29.3577C87.603 28.8532 88.1979 28.2248 88.6619 27.5046C88.808 27.2804 88.8859 27.0191 88.8863 26.7521C88.8884 26.5608 88.8522 26.371 88.78 26.1937C88.7077 26.0163 88.6008 25.8549 88.4653 25.7188C88.3298 25.5826 88.1685 25.4744 87.9907 25.4005C87.8128 25.3265 87.622 25.2882 87.4292 25.2878V25.2878ZM66.7734 26.6863C66.5202 26.9517 66.2152 27.1631 65.8769 27.3075C65.5386 27.452 65.1741 27.5265 64.8058 27.5265C64.4375 27.5265 64.073 27.452 63.7347 27.3075C63.3964 27.1631 63.0913 26.9517 62.8382 26.6863C62.2745 26.0592 61.9836 25.2364 62.029 24.3973C62.0049 23.9846 62.064 23.5712 62.2029 23.1814C62.3419 22.7916 62.5579 22.4332 62.8382 22.1272C63.093 21.8647 63.3986 21.6558 63.7367 21.5131C64.0747 21.3704 64.4384 21.2968 64.8058 21.2968C65.1732 21.2968 65.5368 21.3704 65.8749 21.5131C66.213 21.6558 66.5186 21.8647 66.7734 22.1272C67.2972 22.7734 67.5828 23.5776 67.5828 24.4068C67.5828 25.2359 67.2972 26.0402 66.7734 26.6863V26.6863Z" fill="#00A651"/>
<path d="M92.3347 20.9734C92.7794 20.0486 93.477 19.2663 94.3481 18.7158C95.2008 18.1882 96.188 17.914 97.1928 17.9257C98.0111 17.9084 98.8207 18.0949 99.5476 18.4681C100.186 18.7955 100.724 19.2872 101.106 19.8916V18.1075H104.997V30.7059H101.106V28.9219C100.711 29.5221 100.167 30.0113 99.5255 30.3422C98.7991 30.7169 97.9892 30.9034 97.1707 30.8847C96.1717 30.8942 95.1914 30.6165 94.3481 30.0851C93.476 29.5248 92.7787 28.7343 92.3347 27.8025C91.8472 26.7291 91.5951 25.5652 91.5951 24.3879C91.5951 23.2106 91.8472 22.0467 92.3347 20.9734ZM100.3 22.1272C100.045 21.8645 99.739 21.6556 99.4006 21.5129C99.0623 21.3701 98.6984 21.2966 98.3307 21.2966C97.963 21.2966 97.5992 21.3701 97.2608 21.5129C96.9225 21.6556 96.6166 21.8645 96.3615 22.1272C96.0825 22.4341 95.8674 22.7926 95.7285 23.1822C95.5897 23.5717 95.5298 23.9847 95.5524 24.3973C95.5087 25.2361 95.7993 26.0583 96.3615 26.6862C96.615 26.9517 96.9203 27.1632 97.2589 27.3077C97.5974 27.4522 97.9621 27.5267 98.3307 27.5267C98.6993 27.5267 99.064 27.4522 99.4026 27.3077C99.7411 27.1632 100.046 26.9517 100.3 26.6862C100.822 26.0392 101.106 25.2353 101.106 24.4067C101.106 23.5782 100.822 22.7743 100.3 22.1272Z" fill="#DF1B50"/>
<path d="M61.89 29.3295L61.9437 29.4643Z" fill="#100E0E"/>
</g>
<defs>
<clipPath id="clip0_406_181">
<rect width="85" height="28" fill="white" transform="translate(20 14)"/>
</clipPath>
</defs>
</svg>
