<svg width="1099" height="485" viewBox="0 0 1099 485" fill="none" xmlns="http://www.w3.org/2000/svg">
<g filter="url(#filter0_i_309_123)">
<path d="M322.291 283.851C210.034 510.42 73.5116 494.439 0.475647 451.178L-0.385032 60.179L1073.61 57.8157C1061.69 98.5496 948.887 168.448 762.285 136.501C615.229 111.324 462.612 0.640747 322.291 283.851Z" fill="#F5DBDB"/>
<g filter="url(#filter1_i_309_123)">
<path d="M302.13 226.157C200.281 415.192 65.6598 398.834 0.281626 363.178L-0.383959 60.6793L507.195 58.797C525.319 57.0374 544.061 57.1771 563.56 58.588L995.111 56.9876C984.215 90.9351 846.203 99.3158 769.681 89.4842C691.034 79.3795 623.695 62.9389 563.56 58.588L507.195 58.797C431.464 66.1491 366.513 106.661 302.13 226.157Z" fill="#FFB9B9"/>
</g>
</g>
<defs>
<filter id="filter0_i_309_123" x="-16.3853" y="56.9878" width="1090" height="424.395" filterUnits="userSpaceOnUse" color-interpolation-filters="sRGB">
<feFlood flood-opacity="0" result="BackgroundImageFix"/>
<feBlend mode="normal" in="SourceGraphic" in2="BackgroundImageFix" result="shape"/>
<feColorMatrix in="SourceAlpha" type="matrix" values="0 0 0 0 0 0 0 0 0 0 0 0 0 0 0 0 0 0 127 0" result="hardAlpha"/>
<feOffset dx="-16" dy="4"/>
<feGaussianBlur stdDeviation="10"/>
<feComposite in2="hardAlpha" operator="arithmetic" k2="-1" k3="1"/>
<feColorMatrix type="matrix" values="0 0 0 0 0 0 0 0 0 0 0 0 0 0 0 0 0 0 0.25 0"/>
<feBlend mode="normal" in2="shape" result="effect1_innerShadow_309_123"/>
</filter>
<filter id="filter1_i_309_123" x="-0.383789" y="49.9878" width="995.494" height="335.562" filterUnits="userSpaceOnUse" color-interpolation-filters="sRGB">
<feFlood flood-opacity="0" result="BackgroundImageFix"/>
<feBlend mode="normal" in="SourceGraphic" in2="BackgroundImageFix" result="shape"/>
<feColorMatrix in="SourceAlpha" type="matrix" values="0 0 0 0 0 0 0 0 0 0 0 0 0 0 0 0 0 0 127 0" result="hardAlpha"/>
<feOffset dy="-7"/>
<feGaussianBlur stdDeviation="16"/>
<feComposite in2="hardAlpha" operator="arithmetic" k2="-1" k3="1"/>
<feColorMatrix type="matrix" values="0 0 0 0 0 0 0 0 0 0 0 0 0 0 0 0 0 0 0.25 0"/>
<feBlend mode="normal" in2="shape" result="effect1_innerShadow_309_123"/>
</filter>
</defs>
</svg>
