<svg width="423" height="137" viewBox="0 0 423 137" fill="none" xmlns="http://www.w3.org/2000/svg">
<rect width="423" height="137" rx="15" fill="white"/>
<mask id="mask0_377_163" style="mask-type:alpha" maskUnits="userSpaceOnUse" x="0" y="0" width="423" height="137">
<rect width="423" height="137" rx="15" fill="#D9D9D9"/>
</mask>
<g mask="url(#mask0_377_163)">
<path d="M29 73C18.9132 73 9.05284 75.9911 0.665936 81.595C-7.72097 87.199 -14.2578 95.1641 -18.1178 104.483C-21.9779 113.802 -22.9879 124.057 -21.02 133.95C-19.0522 143.843 -14.1949 152.93 -7.06243 160.062C0.0700508 167.195 9.15738 172.052 19.0504 174.02C28.9434 175.988 39.1978 174.978 48.5169 171.118C57.8359 167.258 65.801 160.721 71.4049 152.334C77.0089 143.947 80 134.087 80 124C80 117.303 78.6808 110.671 76.1179 104.483C73.5549 98.2955 69.7982 92.6733 65.0624 87.9375C60.3267 83.2018 54.7045 79.4451 48.5169 76.8821C42.3293 74.3192 35.6974 73 29 73V73ZM29 164.8C20.9305 164.8 13.0423 162.407 6.33275 157.924C-0.376774 153.441 -5.60621 147.069 -8.69426 139.613C-11.7823 132.158 -12.5903 123.955 -11.016 116.04C-9.44174 108.126 -5.55592 100.856 0.150061 95.15C5.85604 89.4441 13.1259 85.5582 21.0403 83.984C28.9548 82.4097 37.1583 83.2177 44.6135 86.3057C52.0687 89.3938 58.4408 94.6232 62.924 101.333C67.4071 108.042 69.8 115.931 69.8 124C69.8 134.821 65.5014 145.198 57.85 152.85C50.1985 160.501 39.8208 164.8 29 164.8V164.8ZM29 93.4C27.6474 93.4 26.3502 93.9373 25.3938 94.8937C24.4373 95.8502 23.9 97.1474 23.9 98.5V121.042L13.19 127.213C12.2075 127.77 11.4376 128.637 11.001 129.678C10.5644 130.72 10.4857 131.877 10.7774 132.967C11.0691 134.058 11.7146 135.022 12.6128 135.706C13.5109 136.391 14.6108 136.758 15.74 136.75C16.6334 136.756 17.5128 136.528 18.29 136.087L31.55 128.437L32.009 127.978L32.825 127.315C33.0244 127.063 33.1955 126.789 33.335 126.499C33.5012 126.225 33.638 125.935 33.743 125.632C33.8817 125.308 33.9678 124.963 33.998 124.612C33.998 124.612 34.1 124 34.1 124V98.5C34.1 97.1474 33.5627 95.8502 32.6063 94.8937C31.6498 93.9373 30.3526 93.4 29 93.4Z" fill="#FADFDF" fill-opacity="0.75"/>
</g>
</svg>
