<svg width="130" height="174" viewBox="0 0 130 174" fill="none" xmlns="http://www.w3.org/2000/svg">
<rect width="130" height="174" rx="15" fill="white"/>
<path d="M22.0156 138.625H26.2578C27.1276 138.625 27.875 138.755 28.5 139.016C29.1302 139.276 29.6146 139.661 29.9531 140.172C30.2917 140.682 30.4609 141.31 30.4609 142.055C30.4609 142.664 30.3568 143.188 30.1484 143.625C29.9453 144.057 29.6562 144.419 29.2812 144.711C28.9115 144.997 28.4766 145.227 27.9766 145.398L27.2344 145.789H23.5469L23.5312 143.961H26.2734C26.6849 143.961 27.026 143.888 27.2969 143.742C27.5677 143.596 27.7708 143.393 27.9062 143.133C28.0469 142.872 28.1172 142.57 28.1172 142.227C28.1172 141.862 28.0495 141.547 27.9141 141.281C27.7786 141.016 27.5729 140.812 27.2969 140.672C27.0208 140.531 26.6745 140.461 26.2578 140.461H24.3594V150H22.0156V138.625ZM28.375 150L25.7812 144.93L28.2578 144.914L30.8828 149.891V150H28.375ZM37.125 147.977V141.547H39.375V150H37.2578L37.125 147.977ZM37.375 146.242L38.0391 146.227C38.0391 146.789 37.974 147.312 37.8438 147.797C37.7135 148.276 37.5182 148.693 37.2578 149.047C36.9974 149.396 36.6693 149.669 36.2734 149.867C35.8776 150.06 35.4115 150.156 34.875 150.156C34.4635 150.156 34.0833 150.099 33.7344 149.984C33.3906 149.865 33.0938 149.68 32.8438 149.43C32.599 149.174 32.4062 148.849 32.2656 148.453C32.1302 148.052 32.0625 147.57 32.0625 147.008V141.547H34.3125V147.023C34.3125 147.273 34.3411 147.484 34.3984 147.656C34.4609 147.828 34.5469 147.969 34.6562 148.078C34.7656 148.188 34.8932 148.266 35.0391 148.312C35.1901 148.359 35.3568 148.383 35.5391 148.383C36.0026 148.383 36.3672 148.289 36.6328 148.102C36.9036 147.914 37.0938 147.659 37.2031 147.336C37.3177 147.008 37.375 146.643 37.375 146.242ZM43.3438 143.297V150H41.0859V141.547H43.2031L43.3438 143.297ZM43.0312 145.477H42.4062C42.4062 144.888 42.4766 144.346 42.6172 143.852C42.763 143.352 42.974 142.919 43.25 142.555C43.5312 142.185 43.8776 141.898 44.2891 141.695C44.7005 141.492 45.1771 141.391 45.7188 141.391C46.0938 141.391 46.4375 141.448 46.75 141.562C47.0625 141.672 47.3307 141.846 47.5547 142.086C47.7839 142.32 47.9609 142.628 48.0859 143.008C48.2109 143.383 48.2734 143.833 48.2734 144.359V150H46.0234V144.609C46.0234 144.224 45.9714 143.927 45.8672 143.719C45.763 143.51 45.6146 143.365 45.4219 143.281C45.2344 143.198 45.0078 143.156 44.7422 143.156C44.4505 143.156 44.1953 143.216 43.9766 143.336C43.763 143.456 43.5859 143.622 43.4453 143.836C43.3047 144.044 43.2005 144.289 43.1328 144.57C43.0651 144.852 43.0312 145.154 43.0312 145.477ZM48.0625 145.219L47.2578 145.32C47.2578 144.768 47.3255 144.255 47.4609 143.781C47.6016 143.307 47.8073 142.891 48.0781 142.531C48.3542 142.172 48.6953 141.893 49.1016 141.695C49.5078 141.492 49.9766 141.391 50.5078 141.391C50.9141 141.391 51.2839 141.451 51.6172 141.57C51.9505 141.685 52.2344 141.87 52.4688 142.125C52.7083 142.375 52.8906 142.703 53.0156 143.109C53.1458 143.516 53.2109 144.013 53.2109 144.602V150H50.9531V144.602C50.9531 144.211 50.901 143.914 50.7969 143.711C50.6979 143.503 50.5521 143.359 50.3594 143.281C50.1719 143.198 49.9479 143.156 49.6875 143.156C49.4167 143.156 49.1797 143.211 48.9766 143.32C48.7734 143.424 48.6042 143.57 48.4688 143.758C48.3333 143.945 48.2318 144.164 48.1641 144.414C48.0964 144.659 48.0625 144.927 48.0625 145.219ZM59.5156 148.094V144.328C59.5156 144.057 59.4714 143.826 59.3828 143.633C59.2943 143.435 59.1562 143.281 58.9688 143.172C58.7865 143.062 58.5495 143.008 58.2578 143.008C58.0078 143.008 57.7917 143.052 57.6094 143.141C57.4271 143.224 57.2865 143.346 57.1875 143.508C57.0885 143.664 57.0391 143.849 57.0391 144.062H54.7891C54.7891 143.703 54.8724 143.362 55.0391 143.039C55.2057 142.716 55.4479 142.432 55.7656 142.188C56.0833 141.938 56.4609 141.742 56.8984 141.602C57.3411 141.461 57.8359 141.391 58.3828 141.391C59.0391 141.391 59.6224 141.5 60.1328 141.719C60.6432 141.938 61.0443 142.266 61.3359 142.703C61.6328 143.141 61.7812 143.688 61.7812 144.344V147.961C61.7812 148.424 61.8099 148.805 61.8672 149.102C61.9245 149.393 62.0078 149.648 62.1172 149.867V150H59.8438C59.7344 149.771 59.651 149.484 59.5938 149.141C59.5417 148.792 59.5156 148.443 59.5156 148.094ZM59.8125 144.852L59.8281 146.125H58.5703C58.2734 146.125 58.0156 146.159 57.7969 146.227C57.5781 146.294 57.3984 146.391 57.2578 146.516C57.1172 146.635 57.013 146.776 56.9453 146.938C56.8828 147.099 56.8516 147.276 56.8516 147.469C56.8516 147.661 56.8958 147.836 56.9844 147.992C57.0729 148.143 57.2005 148.263 57.3672 148.352C57.5339 148.435 57.7292 148.477 57.9531 148.477C58.2917 148.477 58.5859 148.409 58.8359 148.273C59.0859 148.138 59.2786 147.971 59.4141 147.773C59.5547 147.576 59.6276 147.388 59.6328 147.211L60.2266 148.164C60.1432 148.378 60.0286 148.599 59.8828 148.828C59.7422 149.057 59.5625 149.273 59.3438 149.477C59.125 149.674 58.862 149.839 58.5547 149.969C58.2474 150.094 57.8828 150.156 57.4609 150.156C56.9245 150.156 56.4375 150.049 56 149.836C55.5677 149.617 55.224 149.318 54.9688 148.938C54.7188 148.552 54.5938 148.115 54.5938 147.625C54.5938 147.182 54.6771 146.789 54.8438 146.445C55.0104 146.102 55.2552 145.812 55.5781 145.578C55.9062 145.339 56.3151 145.159 56.8047 145.039C57.2943 144.914 57.862 144.852 58.5078 144.852H59.8125ZM65.7109 138V150H63.4609V138H65.7109ZM65.3906 145.477H64.7734C64.7786 144.888 64.8568 144.346 65.0078 143.852C65.1589 143.352 65.375 142.919 65.6562 142.555C65.9375 142.185 66.2734 141.898 66.6641 141.695C67.0599 141.492 67.4974 141.391 67.9766 141.391C68.3932 141.391 68.7708 141.451 69.1094 141.57C69.4531 141.685 69.7474 141.872 69.9922 142.133C70.2422 142.388 70.4349 142.724 70.5703 143.141C70.7057 143.557 70.7734 144.062 70.7734 144.656V150H68.5078V144.641C68.5078 144.266 68.4531 143.971 68.3438 143.758C68.2396 143.539 68.0859 143.385 67.8828 143.297C67.6849 143.203 67.4401 143.156 67.1484 143.156C66.8255 143.156 66.5495 143.216 66.3203 143.336C66.0964 143.456 65.9167 143.622 65.7812 143.836C65.6458 144.044 65.5469 144.289 65.4844 144.57C65.4219 144.852 65.3906 145.154 65.3906 145.477ZM82.5312 147.023C82.5312 146.82 82.5 146.638 82.4375 146.477C82.3802 146.31 82.2708 146.159 82.1094 146.023C81.9479 145.883 81.7214 145.745 81.4297 145.609C81.138 145.474 80.7604 145.333 80.2969 145.188C79.7812 145.021 79.2917 144.833 78.8281 144.625C78.3698 144.417 77.9635 144.174 77.6094 143.898C77.2604 143.617 76.9844 143.292 76.7812 142.922C76.5833 142.552 76.4844 142.122 76.4844 141.633C76.4844 141.159 76.5885 140.729 76.7969 140.344C77.0052 139.953 77.2969 139.62 77.6719 139.344C78.0469 139.062 78.4896 138.846 79 138.695C79.5156 138.544 80.0807 138.469 80.6953 138.469C81.5339 138.469 82.2656 138.62 82.8906 138.922C83.5156 139.224 84 139.638 84.3438 140.164C84.6927 140.69 84.8672 141.292 84.8672 141.969H82.5391C82.5391 141.635 82.4688 141.344 82.3281 141.094C82.1927 140.839 81.9844 140.638 81.7031 140.492C81.4271 140.346 81.0781 140.273 80.6562 140.273C80.25 140.273 79.9115 140.336 79.6406 140.461C79.3698 140.581 79.1667 140.745 79.0312 140.953C78.8958 141.156 78.8281 141.385 78.8281 141.641C78.8281 141.833 78.875 142.008 78.9688 142.164C79.0677 142.32 79.2135 142.466 79.4062 142.602C79.599 142.737 79.8359 142.865 80.1172 142.984C80.3984 143.104 80.724 143.221 81.0938 143.336C81.7135 143.523 82.2578 143.734 82.7266 143.969C83.2005 144.203 83.5964 144.466 83.9141 144.758C84.2318 145.049 84.4714 145.38 84.6328 145.75C84.7943 146.12 84.875 146.539 84.875 147.008C84.875 147.503 84.7786 147.945 84.5859 148.336C84.3932 148.727 84.1146 149.057 83.75 149.328C83.3854 149.599 82.9505 149.805 82.4453 149.945C81.9401 150.086 81.375 150.156 80.75 150.156C80.1875 150.156 79.6328 150.083 79.0859 149.938C78.5391 149.786 78.0417 149.56 77.5938 149.258C77.151 148.956 76.7969 148.57 76.5312 148.102C76.2656 147.633 76.1328 147.078 76.1328 146.438H78.4844C78.4844 146.792 78.5391 147.091 78.6484 147.336C78.7578 147.581 78.9115 147.779 79.1094 147.93C79.3125 148.081 79.5521 148.19 79.8281 148.258C80.1094 148.326 80.4167 148.359 80.75 148.359C81.1562 148.359 81.4896 148.302 81.75 148.188C82.0156 148.073 82.2109 147.914 82.3359 147.711C82.4661 147.508 82.5312 147.279 82.5312 147.023ZM90.8906 148.094V144.328C90.8906 144.057 90.8464 143.826 90.7578 143.633C90.6693 143.435 90.5312 143.281 90.3438 143.172C90.1615 143.062 89.9245 143.008 89.6328 143.008C89.3828 143.008 89.1667 143.052 88.9844 143.141C88.8021 143.224 88.6615 143.346 88.5625 143.508C88.4635 143.664 88.4141 143.849 88.4141 144.062H86.1641C86.1641 143.703 86.2474 143.362 86.4141 143.039C86.5807 142.716 86.8229 142.432 87.1406 142.188C87.4583 141.938 87.8359 141.742 88.2734 141.602C88.7161 141.461 89.2109 141.391 89.7578 141.391C90.4141 141.391 90.9974 141.5 91.5078 141.719C92.0182 141.938 92.4193 142.266 92.7109 142.703C93.0078 143.141 93.1562 143.688 93.1562 144.344V147.961C93.1562 148.424 93.1849 148.805 93.2422 149.102C93.2995 149.393 93.3828 149.648 93.4922 149.867V150H91.2188C91.1094 149.771 91.026 149.484 90.9688 149.141C90.9167 148.792 90.8906 148.443 90.8906 148.094ZM91.1875 144.852L91.2031 146.125H89.9453C89.6484 146.125 89.3906 146.159 89.1719 146.227C88.9531 146.294 88.7734 146.391 88.6328 146.516C88.4922 146.635 88.388 146.776 88.3203 146.938C88.2578 147.099 88.2266 147.276 88.2266 147.469C88.2266 147.661 88.2708 147.836 88.3594 147.992C88.4479 148.143 88.5755 148.263 88.7422 148.352C88.9089 148.435 89.1042 148.477 89.3281 148.477C89.6667 148.477 89.9609 148.409 90.2109 148.273C90.4609 148.138 90.6536 147.971 90.7891 147.773C90.9297 147.576 91.0026 147.388 91.0078 147.211L91.6016 148.164C91.5182 148.378 91.4036 148.599 91.2578 148.828C91.1172 149.057 90.9375 149.273 90.7188 149.477C90.5 149.674 90.237 149.839 89.9297 149.969C89.6224 150.094 89.2578 150.156 88.8359 150.156C88.2995 150.156 87.8125 150.049 87.375 149.836C86.9427 149.617 86.599 149.318 86.3438 148.938C86.0938 148.552 85.9688 148.115 85.9688 147.625C85.9688 147.182 86.0521 146.789 86.2188 146.445C86.3854 146.102 86.6302 145.812 86.9531 145.578C87.2812 145.339 87.6901 145.159 88.1797 145.039C88.6693 144.914 89.237 144.852 89.8828 144.852H91.1875ZM97.1406 137.992V150H94.8906V137.992H97.1406ZM102.469 141.547L98.7969 145.734L96.8281 147.727L96.0078 146.102L97.5703 144.117L99.7656 141.547H102.469ZM100.133 150L97.6328 146.094L99.1875 144.734L102.727 150H100.133ZM105.812 141.547V150H103.555V141.547H105.812ZM103.414 139.344C103.414 139.016 103.529 138.745 103.758 138.531C103.987 138.318 104.294 138.211 104.68 138.211C105.06 138.211 105.365 138.318 105.594 138.531C105.828 138.745 105.945 139.016 105.945 139.344C105.945 139.672 105.828 139.943 105.594 140.156C105.365 140.37 105.06 140.477 104.68 140.477C104.294 140.477 103.987 140.37 103.758 140.156C103.529 139.943 103.414 139.672 103.414 139.344ZM111.812 141.547V143.141H106.891V141.547H111.812ZM108.109 139.461H110.359V147.453C110.359 147.698 110.391 147.885 110.453 148.016C110.521 148.146 110.62 148.237 110.75 148.289C110.88 148.336 111.044 148.359 111.242 148.359C111.383 148.359 111.508 148.354 111.617 148.344C111.732 148.328 111.828 148.312 111.906 148.297L111.914 149.953C111.721 150.016 111.513 150.065 111.289 150.102C111.065 150.138 110.818 150.156 110.547 150.156C110.052 150.156 109.62 150.076 109.25 149.914C108.885 149.747 108.604 149.482 108.406 149.117C108.208 148.753 108.109 148.273 108.109 147.68V139.461Z" fill="#FFB9B9"/>
<circle cx="65.4483" cy="60.4483" r="31.4483" fill="#FFB9B9"/>
<path d="M75.8095 53.9524H72.2381V49.1905C72.2381 48.4762 71.7619 48 71.0476 48H57.9524C57.2381 48 56.7619 48.4762 56.7619 49.1905V53.9524H53.1905C52.4762 53.9524 52 54.4286 52 55.1429V71.8095C52 72.5238 52.4762 73 53.1905 73H75.8095C76.5238 73 77 72.5238 77 71.8095V55.1429C77 54.4286 76.5238 53.9524 75.8095 53.9524ZM59.1429 68.2381H57.9524C57.2381 68.2381 56.7619 67.7619 56.7619 67.0476C56.7619 66.3333 57.2381 65.8571 57.9524 65.8571H59.1429C59.8571 65.8571 60.3333 66.3333 60.3333 67.0476C60.3333 67.7619 59.8571 68.2381 59.1429 68.2381ZM59.1429 63.4762H57.9524C57.2381 63.4762 56.7619 63 56.7619 62.2857C56.7619 61.5714 57.2381 61.0952 57.9524 61.0952H59.1429C59.8571 61.0952 60.3333 61.5714 60.3333 62.2857C60.3333 63 59.8571 63.4762 59.1429 63.4762ZM65.0952 68.2381H63.9048C63.1905 68.2381 62.7143 67.7619 62.7143 67.0476C62.7143 66.3333 63.1905 65.8571 63.9048 65.8571H65.0952C65.8095 65.8571 66.2857 66.3333 66.2857 67.0476C66.2857 67.7619 65.8095 68.2381 65.0952 68.2381ZM65.0952 63.4762H63.9048C63.1905 63.4762 62.7143 63 62.7143 62.2857C62.7143 61.5714 63.1905 61.0952 63.9048 61.0952H65.0952C65.8095 61.0952 66.2857 61.5714 66.2857 62.2857C66.2857 63 65.8095 63.4762 65.0952 63.4762ZM66.2857 56.9286H65.6905V57.5238C65.6905 58.2381 65.2143 58.7143 64.5 58.7143C63.7857 58.7143 63.3095 58.2381 63.3095 57.5238V56.9286H62.7143C62 56.9286 61.5238 56.4524 61.5238 55.7381C61.5238 55.0238 62 54.5476 62.7143 54.5476H63.3095V53.9524C63.3095 53.2381 63.7857 52.7619 64.5 52.7619C65.2143 52.7619 65.6905 53.2381 65.6905 53.9524V54.5476H66.2857C67 54.5476 67.4762 55.0238 67.4762 55.7381C67.4762 56.4524 67 56.9286 66.2857 56.9286ZM71.0476 68.2381H69.8571C69.1429 68.2381 68.6667 67.7619 68.6667 67.0476C68.6667 66.3333 69.1429 65.8571 69.8571 65.8571H71.0476C71.7619 65.8571 72.2381 66.3333 72.2381 67.0476C72.2381 67.7619 71.7619 68.2381 71.0476 68.2381ZM71.0476 63.4762H69.8571C69.1429 63.4762 68.6667 63 68.6667 62.2857C68.6667 61.5714 69.1429 61.0952 69.8571 61.0952H71.0476C71.7619 61.0952 72.2381 61.5714 72.2381 62.2857C72.2381 63 71.7619 63.4762 71.0476 63.4762Z" fill="white"/>
</svg>
