<svg width="136" height="158" viewBox="0 0 136 158" fill="none" xmlns="http://www.w3.org/2000/svg">
<g filter="url(#filter0_d_26_35)">
<path d="M11 12C11 9.23857 13.2386 7 16 7H120C122.761 7 125 9.23858 125 12V138C125 140.761 122.761 143 120 143H16C13.2386 143 11 140.761 11 138V12Z" fill="white"/>
</g>
<path d="M42.6083 114.084C42.4483 114.084 42.3243 114.04 42.2363 113.952C42.1563 113.856 42.1163 113.728 42.1163 113.568V106.044C42.1163 105.876 42.1603 105.752 42.2483 105.672C42.3363 105.584 42.4603 105.54 42.6203 105.54H45.4643C46.3683 105.54 47.0643 105.752 47.5523 106.176C48.0403 106.6 48.2843 107.204 48.2843 107.988C48.2843 108.484 48.1723 108.916 47.9483 109.284C47.7323 109.644 47.4123 109.92 46.9883 110.112C46.5643 110.296 46.0563 110.388 45.4643 110.388L45.5843 110.232H45.8243C46.1363 110.232 46.4083 110.312 46.6403 110.472C46.8723 110.632 47.0843 110.888 47.2763 111.24L48.4283 113.388C48.4923 113.5 48.5203 113.612 48.5123 113.724C48.5123 113.828 48.4763 113.916 48.4043 113.988C48.3323 114.052 48.2283 114.084 48.0923 114.084C47.9563 114.084 47.8443 114.052 47.7563 113.988C47.6683 113.924 47.5923 113.832 47.5283 113.712L46.2203 111.288C46.0363 110.944 45.8243 110.716 45.5843 110.604C45.3443 110.484 45.0283 110.424 44.6363 110.424H43.1003V113.568C43.1003 113.728 43.0603 113.856 42.9803 113.952C42.9003 114.04 42.7763 114.084 42.6083 114.084ZM43.1003 109.644H45.3203C45.9763 109.644 46.4723 109.508 46.8083 109.236C47.1443 108.956 47.3123 108.54 47.3123 107.988C47.3123 107.452 47.1443 107.048 46.8083 106.776C46.4723 106.496 45.9763 106.356 45.3203 106.356H43.1003V109.644ZM52.5107 114.108C51.8947 114.108 51.3627 113.988 50.9147 113.748C50.4747 113.5 50.1307 113.152 49.8827 112.704C49.6427 112.256 49.5227 111.72 49.5227 111.096C49.5227 110.488 49.6427 109.96 49.8827 109.512C50.1227 109.056 50.4507 108.7 50.8667 108.444C51.2907 108.188 51.7787 108.06 52.3307 108.06C52.7227 108.06 53.0747 108.128 53.3867 108.264C53.6987 108.392 53.9627 108.58 54.1787 108.828C54.4027 109.076 54.5707 109.376 54.6827 109.728C54.8027 110.08 54.8627 110.476 54.8627 110.916C54.8627 111.044 54.8267 111.14 54.7547 111.204C54.6827 111.26 54.5787 111.288 54.4427 111.288H50.2667V110.652H54.2147L54.0227 110.808C54.0227 110.376 53.9587 110.012 53.8307 109.716C53.7027 109.412 53.5147 109.18 53.2667 109.02C53.0267 108.86 52.7227 108.78 52.3547 108.78C51.9467 108.78 51.5987 108.876 51.3107 109.068C51.0307 109.252 50.8187 109.512 50.6747 109.848C50.5307 110.176 50.4587 110.56 50.4587 111V111.072C50.4587 111.808 50.6347 112.368 50.9867 112.752C51.3467 113.136 51.8547 113.328 52.5107 113.328C52.7827 113.328 53.0507 113.292 53.3147 113.22C53.5867 113.148 53.8507 113.028 54.1067 112.86C54.2187 112.788 54.3187 112.756 54.4067 112.764C54.5027 112.764 54.5787 112.792 54.6347 112.848C54.6907 112.896 54.7267 112.96 54.7427 113.04C54.7667 113.112 54.7587 113.192 54.7187 113.28C54.6867 113.368 54.6187 113.444 54.5147 113.508C54.2507 113.7 53.9387 113.848 53.5787 113.952C53.2187 114.056 52.8627 114.108 52.5107 114.108ZM56.7734 114.084C56.6134 114.084 56.4934 114.04 56.4134 113.952C56.3334 113.864 56.2934 113.74 56.2934 113.58V108.576C56.2934 108.416 56.3334 108.296 56.4134 108.216C56.4934 108.128 56.6094 108.084 56.7614 108.084C56.9134 108.084 57.0294 108.128 57.1094 108.216C57.1974 108.296 57.2414 108.416 57.2414 108.576V109.632L57.1094 109.464C57.2614 109.016 57.5054 108.672 57.8414 108.432C58.1854 108.184 58.5934 108.06 59.0654 108.06C59.5614 108.06 59.9614 108.18 60.2654 108.42C60.5774 108.652 60.7854 109.016 60.8894 109.512H60.7094C60.8534 109.064 61.1094 108.712 61.4774 108.456C61.8534 108.192 62.2894 108.06 62.7854 108.06C63.2254 108.06 63.5854 108.144 63.8654 108.312C64.1534 108.48 64.3694 108.736 64.5134 109.08C64.6574 109.416 64.7294 109.844 64.7294 110.364V113.58C64.7294 113.74 64.6854 113.864 64.5974 113.952C64.5174 114.04 64.3974 114.084 64.2374 114.084C64.0854 114.084 63.9654 114.04 63.8774 113.952C63.7974 113.864 63.7574 113.74 63.7574 113.58V110.412C63.7574 109.876 63.6654 109.484 63.4814 109.236C63.2974 108.98 62.9854 108.852 62.5454 108.852C62.0654 108.852 61.6854 109.02 61.4054 109.356C61.1334 109.684 60.9974 110.132 60.9974 110.7V113.58C60.9974 113.74 60.9534 113.864 60.8654 113.952C60.7854 114.04 60.6654 114.084 60.5054 114.084C60.3534 114.084 60.2334 114.04 60.1454 113.952C60.0654 113.864 60.0254 113.74 60.0254 113.58V110.412C60.0254 109.876 59.9294 109.484 59.7374 109.236C59.5534 108.98 59.2454 108.852 58.8134 108.852C58.3334 108.852 57.9534 109.02 57.6734 109.356C57.4014 109.684 57.2654 110.132 57.2654 110.7V113.58C57.2654 113.916 57.1014 114.084 56.7734 114.084ZM67.0268 114.06C66.8668 114.06 66.7468 114.016 66.6668 113.928C66.5868 113.832 66.5468 113.7 66.5468 113.532V108.624C66.5468 108.456 66.5868 108.328 66.6668 108.24C66.7468 108.152 66.8668 108.108 67.0268 108.108C67.1788 108.108 67.2988 108.152 67.3868 108.24C67.4748 108.328 67.5188 108.456 67.5188 108.624V113.532C67.5188 113.7 67.4748 113.832 67.3868 113.928C67.3068 114.016 67.1868 114.06 67.0268 114.06ZM67.0268 106.764C66.8268 106.764 66.6708 106.712 66.5588 106.608C66.4468 106.496 66.3908 106.348 66.3908 106.164C66.3908 105.972 66.4468 105.828 66.5588 105.732C66.6708 105.628 66.8268 105.576 67.0268 105.576C67.2348 105.576 67.3908 105.628 67.4948 105.732C67.6068 105.828 67.6628 105.972 67.6628 106.164C67.6628 106.348 67.6068 106.496 67.4948 106.608C67.3908 106.712 67.2348 106.764 67.0268 106.764ZM69.8158 114.084C69.6558 114.084 69.5358 114.04 69.4558 113.952C69.3758 113.864 69.3358 113.74 69.3358 113.58V108.576C69.3358 108.416 69.3758 108.296 69.4558 108.216C69.5358 108.128 69.6518 108.084 69.8038 108.084C69.9558 108.084 70.0718 108.128 70.1518 108.216C70.2398 108.296 70.2838 108.416 70.2838 108.576V109.608L70.1518 109.464C70.3198 109 70.5918 108.652 70.9678 108.42C71.3518 108.18 71.7918 108.06 72.2878 108.06C72.7518 108.06 73.1358 108.144 73.4398 108.312C73.7518 108.48 73.9838 108.736 74.1358 109.08C74.2878 109.416 74.3638 109.844 74.3638 110.364V113.58C74.3638 113.74 74.3198 113.864 74.2318 113.952C74.1518 114.04 74.0358 114.084 73.8838 114.084C73.7238 114.084 73.5998 114.04 73.5118 113.952C73.4318 113.864 73.3918 113.74 73.3918 113.58V110.424C73.3918 109.88 73.2838 109.484 73.0678 109.236C72.8598 108.98 72.5238 108.852 72.0598 108.852C71.5238 108.852 71.0958 109.02 70.7758 109.356C70.4638 109.684 70.3078 110.124 70.3078 110.676V113.58C70.3078 113.916 70.1438 114.084 69.8158 114.084ZM78.3761 114.108C77.8561 114.108 77.4001 113.984 77.0081 113.736C76.6241 113.488 76.3241 113.14 76.1081 112.692C75.9001 112.236 75.7961 111.7 75.7961 111.084C75.7961 110.46 75.9001 109.924 76.1081 109.476C76.3241 109.02 76.6241 108.672 77.0081 108.432C77.4001 108.184 77.8561 108.06 78.3761 108.06C78.9041 108.06 79.3561 108.192 79.7321 108.456C80.1081 108.72 80.3601 109.076 80.4881 109.524H80.3561V105.948C80.3561 105.788 80.3961 105.668 80.4761 105.588C80.5641 105.5 80.6881 105.456 80.8481 105.456C81.0001 105.456 81.1161 105.5 81.1961 105.588C81.2841 105.668 81.3281 105.788 81.3281 105.948V113.58C81.3281 113.74 81.2881 113.864 81.2081 113.952C81.1281 114.04 81.0081 114.084 80.8481 114.084C80.6961 114.084 80.5761 114.04 80.4881 113.952C80.4081 113.864 80.3681 113.74 80.3681 113.58V112.44L80.5001 112.608C80.3721 113.064 80.1161 113.428 79.7321 113.7C79.3561 113.972 78.9041 114.108 78.3761 114.108ZM78.5801 113.328C78.9401 113.328 79.2561 113.24 79.5281 113.064C79.8001 112.888 80.0081 112.632 80.1521 112.296C80.3041 111.96 80.3801 111.556 80.3801 111.084C80.3801 110.356 80.2161 109.8 79.8881 109.416C79.5681 109.032 79.1321 108.84 78.5801 108.84C78.2121 108.84 77.8921 108.928 77.6201 109.104C77.3561 109.272 77.1481 109.524 76.9961 109.86C76.8521 110.188 76.7801 110.596 76.7801 111.084C76.7801 111.804 76.9441 112.36 77.2721 112.752C77.6001 113.136 78.0361 113.328 78.5801 113.328ZM85.7802 114.108C85.1642 114.108 84.6322 113.988 84.1842 113.748C83.7442 113.5 83.4002 113.152 83.1522 112.704C82.9122 112.256 82.7922 111.72 82.7922 111.096C82.7922 110.488 82.9122 109.96 83.1522 109.512C83.3922 109.056 83.7202 108.7 84.1362 108.444C84.5602 108.188 85.0482 108.06 85.6002 108.06C85.9922 108.06 86.3442 108.128 86.6562 108.264C86.9682 108.392 87.2322 108.58 87.4482 108.828C87.6722 109.076 87.8402 109.376 87.9522 109.728C88.0722 110.08 88.1322 110.476 88.1322 110.916C88.1322 111.044 88.0962 111.14 88.0242 111.204C87.9522 111.26 87.8482 111.288 87.7122 111.288H83.5362V110.652H87.4842L87.2922 110.808C87.2922 110.376 87.2282 110.012 87.1002 109.716C86.9722 109.412 86.7842 109.18 86.5362 109.02C86.2962 108.86 85.9922 108.78 85.6242 108.78C85.2162 108.78 84.8682 108.876 84.5802 109.068C84.3002 109.252 84.0882 109.512 83.9442 109.848C83.8002 110.176 83.7282 110.56 83.7282 111V111.072C83.7282 111.808 83.9042 112.368 84.2562 112.752C84.6162 113.136 85.1242 113.328 85.7802 113.328C86.0522 113.328 86.3202 113.292 86.5842 113.22C86.8562 113.148 87.1202 113.028 87.3762 112.86C87.4882 112.788 87.5882 112.756 87.6762 112.764C87.7722 112.764 87.8482 112.792 87.9042 112.848C87.9602 112.896 87.9962 112.96 88.0122 113.04C88.0362 113.112 88.0282 113.192 87.9882 113.28C87.9562 113.368 87.8882 113.444 87.7842 113.508C87.5202 113.7 87.2082 113.848 86.8482 113.952C86.4882 114.056 86.1322 114.108 85.7802 114.108ZM90.031 114.084C89.871 114.084 89.747 114.04 89.659 113.952C89.579 113.864 89.539 113.74 89.539 113.58V108.576C89.539 108.416 89.579 108.296 89.659 108.216C89.739 108.128 89.855 108.084 90.007 108.084C90.159 108.084 90.275 108.128 90.355 108.216C90.443 108.296 90.487 108.416 90.487 108.576V109.548H90.367C90.495 109.076 90.739 108.712 91.099 108.456C91.459 108.2 91.903 108.064 92.431 108.048C92.551 108.04 92.647 108.068 92.719 108.132C92.791 108.188 92.831 108.288 92.839 108.432C92.847 108.568 92.815 108.676 92.743 108.756C92.671 108.836 92.559 108.884 92.407 108.9L92.215 108.924C91.671 108.972 91.251 109.148 90.955 109.452C90.667 109.748 90.523 110.156 90.523 110.676V113.58C90.523 113.74 90.479 113.864 90.391 113.952C90.311 114.04 90.191 114.084 90.031 114.084Z" fill="black"/>
<circle cx="67.5" cy="50.5" r="27.5" fill="#FFB9B9"/>
<path d="M68 41C66.0222 41 64.0888 41.5865 62.4443 42.6853C60.7998 43.7841 59.5181 45.3459 58.7612 47.1732C58.0043 49.0004 57.8063 51.0111 58.1922 52.9509C58.578 54.8907 59.5304 56.6725 60.9289 58.0711C62.3275 59.4696 64.1093 60.422 66.0491 60.8079C67.9889 61.1937 69.9996 60.9957 71.8268 60.2388C73.6541 59.4819 75.2159 58.2002 76.3147 56.5557C77.4135 54.9112 78 52.9778 78 51C78 49.6868 77.7413 48.3864 77.2388 47.1732C76.7363 45.9599 75.9997 44.8575 75.0711 43.9289C74.1425 43.0003 73.0401 42.2638 71.8268 41.7612C70.6136 41.2587 69.3132 41 68 41ZM68 59C66.4178 59 64.871 58.5308 63.5554 57.6518C62.2398 56.7727 61.2145 55.5233 60.609 54.0615C60.0035 52.5997 59.845 50.9911 60.1537 49.4393C60.4624 47.8874 61.2243 46.462 62.3432 45.3431C63.462 44.2243 64.8874 43.4624 66.4393 43.1537C67.9911 42.845 69.5997 43.0035 71.0615 43.609C72.5233 44.2145 73.7727 45.2398 74.6518 46.5554C75.5308 47.871 76 49.4177 76 51C76 53.1217 75.1572 55.1566 73.6569 56.6569C72.1566 58.1571 70.1217 59 68 59ZM71.1 51.63L69 50.42V46C69 45.7348 68.8946 45.4804 68.7071 45.2929C68.5196 45.1054 68.2652 45 68 45C67.7348 45 67.4804 45.1054 67.2929 45.2929C67.1054 45.4804 67 45.7348 67 46V51C67 51 67 51.08 67 51.12C67.0059 51.1889 67.0228 51.2564 67.05 51.32C67.0706 51.3793 67.0974 51.4363 67.13 51.49C67.1574 51.5468 67.1909 51.6005 67.23 51.65L67.39 51.78L67.48 51.87L70.08 53.37C70.2324 53.4564 70.4048 53.5012 70.58 53.5C70.8014 53.5015 71.0171 53.4296 71.1932 53.2953C71.3693 53.1611 71.4959 52.9722 71.5531 52.7583C71.6103 52.5444 71.5948 52.3176 71.5092 52.1134C71.4236 51.9092 71.2726 51.7392 71.08 51.63H71.1Z" fill="white"/>
<defs>
<filter id="filter0_d_26_35" x="0" y="0" width="136" height="158" filterUnits="userSpaceOnUse" color-interpolation-filters="sRGB">
<feFlood flood-opacity="0" result="BackgroundImageFix"/>
<feColorMatrix in="SourceAlpha" type="matrix" values="0 0 0 0 0 0 0 0 0 0 0 0 0 0 0 0 0 0 127 0" result="hardAlpha"/>
<feOffset dy="4"/>
<feGaussianBlur stdDeviation="5.5"/>
<feComposite in2="hardAlpha" operator="out"/>
<feColorMatrix type="matrix" values="0 0 0 0 0 0 0 0 0 0 0 0 0 0 0 0 0 0 0.25 0"/>
<feBlend mode="normal" in2="BackgroundImageFix" result="effect1_dropShadow_26_35"/>
<feBlend mode="normal" in="SourceGraphic" in2="effect1_dropShadow_26_35" result="shape"/>
</filter>
</defs>
</svg>
