<svg width="130" height="174" viewBox="0 0 130 174" fill="none" xmlns="http://www.w3.org/2000/svg">
<rect width="130" height="174" rx="15" fill="white"/>
<ellipse cx="64.9471" cy="60.4483" rx="32.1912" ry="31.4483" fill="#FFB9B9"/>
<path d="M64.947 41.4482C54.2502 41.4482 45.4982 49.9982 45.4982 60.4482C45.4982 70.8982 54.2502 79.4482 64.947 79.4482C75.6439 79.4482 84.3959 70.8982 84.3959 60.4482C84.3959 49.9982 75.6439 41.4482 64.947 41.4482ZM70.7817 62.3482H64.947C63.7801 62.3482 63.0022 61.5882 63.0022 60.4482V50.9482C63.0022 49.8082 63.7801 49.0482 64.947 49.0482C66.114 49.0482 66.8919 49.8082 66.8919 50.9482V58.5482H70.7817C71.9486 58.5482 72.7266 59.3082 72.7266 60.4482C72.7266 61.5882 71.9486 62.3482 70.7817 62.3482Z" fill="white"/>
<path d="M22.2695 135.781H27.5723C28.6595 135.781 29.5938 135.944 30.375 136.27C31.1628 136.595 31.7682 137.077 32.1914 137.715C32.6146 138.353 32.8262 139.137 32.8262 140.068C32.8262 140.83 32.696 141.484 32.4355 142.031C32.1816 142.572 31.8203 143.024 31.3516 143.389C30.8893 143.747 30.3457 144.033 29.7207 144.248L28.793 144.736H24.1836L24.1641 142.451H27.5918C28.1061 142.451 28.5326 142.36 28.8711 142.178C29.2096 141.995 29.4635 141.742 29.6328 141.416C29.8086 141.09 29.8965 140.713 29.8965 140.283C29.8965 139.827 29.8118 139.434 29.6426 139.102C29.4733 138.77 29.2161 138.516 28.8711 138.34C28.526 138.164 28.0931 138.076 27.5723 138.076H25.1992V150H22.2695V135.781ZM30.2188 150L26.9766 143.662L30.0723 143.643L33.3535 149.863V150H30.2188ZM39.7695 150.195C38.9492 150.195 38.2135 150.065 37.5625 149.805C36.9115 149.538 36.3581 149.17 35.9023 148.701C35.4531 148.232 35.1081 147.689 34.8672 147.07C34.6263 146.445 34.5059 145.781 34.5059 145.078V144.688C34.5059 143.887 34.6198 143.154 34.8477 142.49C35.0755 141.826 35.401 141.25 35.8242 140.762C36.2539 140.273 36.7747 139.899 37.3867 139.639C37.9987 139.372 38.6888 139.238 39.457 139.238C40.2057 139.238 40.8698 139.362 41.4492 139.609C42.0286 139.857 42.5137 140.208 42.9043 140.664C43.3014 141.12 43.6009 141.667 43.8027 142.305C44.0046 142.936 44.1055 143.639 44.1055 144.414V145.586H35.707V143.711H41.3418V143.496C41.3418 143.105 41.2702 142.757 41.127 142.451C40.9902 142.139 40.7819 141.891 40.502 141.709C40.222 141.527 39.8639 141.436 39.4277 141.436C39.0566 141.436 38.7376 141.517 38.4707 141.68C38.2038 141.842 37.9857 142.07 37.8164 142.363C37.6536 142.656 37.5299 143.001 37.4453 143.398C37.3672 143.789 37.3281 144.219 37.3281 144.688V145.078C37.3281 145.501 37.3867 145.892 37.5039 146.25C37.6276 146.608 37.8001 146.917 38.0215 147.178C38.2493 147.438 38.5228 147.64 38.8418 147.783C39.1673 147.926 39.5352 147.998 39.9453 147.998C40.4531 147.998 40.9251 147.9 41.3613 147.705C41.804 147.503 42.1849 147.201 42.5039 146.797L43.8711 148.281C43.6497 148.6 43.347 148.906 42.9629 149.199C42.5853 149.492 42.1296 149.733 41.5957 149.922C41.0618 150.104 40.4531 150.195 39.7695 150.195ZM48.5195 141.621V150H45.6973V139.434H48.3438L48.5195 141.621ZM48.1289 144.346H47.3477C47.3477 143.61 47.4355 142.933 47.6113 142.314C47.7936 141.689 48.0573 141.149 48.4023 140.693C48.7539 140.231 49.1868 139.873 49.7012 139.619C50.2155 139.365 50.8112 139.238 51.4883 139.238C51.957 139.238 52.3867 139.31 52.7773 139.453C53.168 139.59 53.5033 139.808 53.7832 140.107C54.0697 140.4 54.291 140.785 54.4473 141.26C54.6035 141.729 54.6816 142.292 54.6816 142.949V150H51.8691V143.262C51.8691 142.78 51.804 142.409 51.6738 142.148C51.5436 141.888 51.3581 141.706 51.1172 141.602C50.8828 141.497 50.5996 141.445 50.2676 141.445C49.903 141.445 49.584 141.52 49.3105 141.67C49.0436 141.82 48.8223 142.028 48.6465 142.295C48.4707 142.555 48.3405 142.861 48.2559 143.213C48.1712 143.564 48.1289 143.942 48.1289 144.346ZM54.418 144.023L53.4121 144.15C53.4121 143.46 53.4967 142.819 53.666 142.227C53.8418 141.634 54.099 141.113 54.4375 140.664C54.7826 140.215 55.209 139.867 55.7168 139.619C56.2246 139.365 56.8105 139.238 57.4746 139.238C57.9824 139.238 58.4447 139.313 58.8613 139.463C59.278 139.606 59.6328 139.837 59.9258 140.156C60.2253 140.469 60.4531 140.879 60.6094 141.387C60.7721 141.895 60.8535 142.516 60.8535 143.252V150H58.0312V143.252C58.0312 142.764 57.9661 142.393 57.8359 142.139C57.7122 141.878 57.5299 141.699 57.2891 141.602C57.0547 141.497 56.7747 141.445 56.4492 141.445C56.1107 141.445 55.8145 141.514 55.5605 141.65C55.3066 141.781 55.0951 141.963 54.9258 142.197C54.7565 142.432 54.6296 142.705 54.5449 143.018C54.4603 143.324 54.418 143.659 54.418 144.023ZM66 139.434V150H63.1777V139.434H66ZM63.002 136.68C63.002 136.27 63.1452 135.931 63.4316 135.664C63.7181 135.397 64.1022 135.264 64.584 135.264C65.0592 135.264 65.4401 135.397 65.7266 135.664C66.0195 135.931 66.166 136.27 66.166 136.68C66.166 137.09 66.0195 137.428 65.7266 137.695C65.4401 137.962 65.0592 138.096 64.584 138.096C64.1022 138.096 63.7181 137.962 63.4316 137.695C63.1452 137.428 63.002 137.09 63.002 136.68ZM71.0781 141.689V150H68.2656V139.434H70.9023L71.0781 141.689ZM70.668 144.346H69.9062C69.9062 143.564 70.0072 142.861 70.209 142.236C70.4108 141.605 70.694 141.068 71.0586 140.625C71.4232 140.176 71.8561 139.834 72.3574 139.6C72.8652 139.359 73.4316 139.238 74.0566 139.238C74.5514 139.238 75.0039 139.31 75.4141 139.453C75.8242 139.596 76.1758 139.824 76.4688 140.137C76.7682 140.449 76.9961 140.863 77.1523 141.377C77.3151 141.891 77.3965 142.52 77.3965 143.262V150H74.5645V143.252C74.5645 142.783 74.4993 142.419 74.3691 142.158C74.2389 141.898 74.0469 141.715 73.793 141.611C73.5456 141.501 73.2396 141.445 72.875 141.445C72.4974 141.445 72.1686 141.52 71.8887 141.67C71.6152 141.82 71.3874 142.028 71.2051 142.295C71.0293 142.555 70.8958 142.861 70.8047 143.213C70.7135 143.564 70.668 143.942 70.668 144.346ZM85.7754 147.695V135H88.6074V150H86.0586L85.7754 147.695ZM79.0957 144.844V144.639C79.0957 143.831 79.1868 143.099 79.3691 142.441C79.5514 141.777 79.8184 141.208 80.1699 140.732C80.5215 140.257 80.9544 139.889 81.4688 139.629C81.9831 139.368 82.569 139.238 83.2266 139.238C83.8451 139.238 84.3854 139.368 84.8477 139.629C85.3164 139.889 85.7135 140.26 86.0391 140.742C86.3711 141.217 86.638 141.781 86.8398 142.432C87.0417 143.076 87.1882 143.783 87.2793 144.551V145C87.1882 145.736 87.0417 146.419 86.8398 147.051C86.638 147.682 86.3711 148.236 86.0391 148.711C85.7135 149.18 85.3164 149.544 84.8477 149.805C84.3789 150.065 83.832 150.195 83.207 150.195C82.5495 150.195 81.9635 150.062 81.4492 149.795C80.9414 149.528 80.5117 149.154 80.1602 148.672C79.8151 148.19 79.5514 147.624 79.3691 146.973C79.1868 146.322 79.0957 145.612 79.0957 144.844ZM81.9082 144.639V144.844C81.9082 145.28 81.9408 145.687 82.0059 146.064C82.0775 146.442 82.1914 146.777 82.3477 147.07C82.5104 147.357 82.7188 147.581 82.9727 147.744C83.2331 147.9 83.5488 147.979 83.9199 147.979C84.4017 147.979 84.7988 147.871 85.1113 147.656C85.4238 147.435 85.6615 147.132 85.8242 146.748C85.9935 146.364 86.0911 145.921 86.1172 145.42V144.141C86.0977 143.73 86.0391 143.363 85.9414 143.037C85.8503 142.705 85.7135 142.422 85.5312 142.188C85.3555 141.953 85.1341 141.771 84.8672 141.641C84.6068 141.51 84.2975 141.445 83.9395 141.445C83.5749 141.445 83.2624 141.53 83.002 141.699C82.7415 141.862 82.5299 142.087 82.3672 142.373C82.2109 142.66 82.0938 142.998 82.0156 143.389C81.944 143.773 81.9082 144.189 81.9082 144.639ZM95.668 150.195C94.8477 150.195 94.112 150.065 93.4609 149.805C92.8099 149.538 92.2565 149.17 91.8008 148.701C91.3516 148.232 91.0065 147.689 90.7656 147.07C90.5247 146.445 90.4043 145.781 90.4043 145.078V144.688C90.4043 143.887 90.5182 143.154 90.7461 142.49C90.974 141.826 91.2995 141.25 91.7227 140.762C92.1523 140.273 92.6732 139.899 93.2852 139.639C93.8971 139.372 94.5872 139.238 95.3555 139.238C96.1042 139.238 96.7682 139.362 97.3477 139.609C97.9271 139.857 98.4121 140.208 98.8027 140.664C99.1999 141.12 99.4993 141.667 99.7012 142.305C99.903 142.936 100.004 143.639 100.004 144.414V145.586H91.6055V143.711H97.2402V143.496C97.2402 143.105 97.1686 142.757 97.0254 142.451C96.8887 142.139 96.6803 141.891 96.4004 141.709C96.1204 141.527 95.7624 141.436 95.3262 141.436C94.9551 141.436 94.6361 141.517 94.3691 141.68C94.1022 141.842 93.8841 142.07 93.7148 142.363C93.5521 142.656 93.4284 143.001 93.3438 143.398C93.2656 143.789 93.2266 144.219 93.2266 144.688V145.078C93.2266 145.501 93.2852 145.892 93.4023 146.25C93.526 146.608 93.6986 146.917 93.9199 147.178C94.1478 147.438 94.4212 147.64 94.7402 147.783C95.0658 147.926 95.4336 147.998 95.8438 147.998C96.3516 147.998 96.8236 147.9 97.2598 147.705C97.7025 147.503 98.0833 147.201 98.4023 146.797L99.7695 148.281C99.5482 148.6 99.2454 148.906 98.8613 149.199C98.4837 149.492 98.028 149.733 97.4941 149.922C96.9603 150.104 96.3516 150.195 95.668 150.195ZM104.418 141.738V150H101.605V139.434H104.252L104.418 141.738ZM107.602 139.365L107.553 141.973C107.416 141.953 107.25 141.937 107.055 141.924C106.866 141.904 106.693 141.895 106.537 141.895C106.14 141.895 105.795 141.947 105.502 142.051C105.215 142.148 104.975 142.295 104.779 142.49C104.59 142.686 104.447 142.923 104.35 143.203C104.258 143.483 104.206 143.802 104.193 144.16L103.627 143.984C103.627 143.301 103.695 142.673 103.832 142.1C103.969 141.52 104.167 141.016 104.428 140.586C104.695 140.156 105.02 139.824 105.404 139.59C105.788 139.355 106.228 139.238 106.723 139.238C106.879 139.238 107.038 139.251 107.201 139.277C107.364 139.297 107.497 139.326 107.602 139.365Z" fill="#FFB9B9"/>
</svg>
