<svg width="130" height="174" viewBox="0 0 130 174" fill="none" xmlns="http://www.w3.org/2000/svg">
<rect width="130" height="174" rx="15" fill="white"/>
<path d="M27.8359 143.76H24.1836L24.1641 141.748H27.2305C27.7708 141.748 28.2135 141.68 28.5586 141.543C28.9036 141.4 29.1608 141.195 29.3301 140.928C29.5059 140.654 29.5938 140.322 29.5938 139.932C29.5938 139.489 29.5091 139.131 29.3398 138.857C29.1771 138.584 28.9199 138.385 28.5684 138.262C28.2233 138.138 27.7773 138.076 27.2305 138.076H25.1992V150H22.2695V135.781H27.2305C28.0573 135.781 28.7962 135.859 29.4473 136.016C30.1048 136.172 30.6615 136.41 31.1172 136.729C31.5729 137.048 31.9212 137.451 32.1621 137.939C32.403 138.421 32.5234 138.994 32.5234 139.658C32.5234 140.244 32.39 140.785 32.123 141.279C31.8626 141.774 31.4492 142.178 30.8828 142.49C30.3229 142.803 29.5905 142.975 28.6855 143.008L27.8359 143.76ZM27.709 150H23.3828L24.5254 147.715H27.709C28.2233 147.715 28.6432 147.633 28.9688 147.471C29.2943 147.301 29.5352 147.074 29.6914 146.787C29.8477 146.501 29.9258 146.172 29.9258 145.801C29.9258 145.384 29.8542 145.023 29.7109 144.717C29.5742 144.411 29.3529 144.176 29.0469 144.014C28.7409 143.844 28.3372 143.76 27.8359 143.76H25.0137L25.0332 141.748H28.5488L29.2227 142.539C30.0885 142.526 30.7852 142.679 31.3125 142.998C31.8464 143.311 32.2337 143.717 32.4746 144.219C32.722 144.72 32.8457 145.257 32.8457 145.83C32.8457 146.742 32.6471 147.51 32.25 148.135C31.8529 148.753 31.2702 149.219 30.502 149.531C29.7402 149.844 28.8092 150 27.709 150ZM41.1172 147.471V139.434H43.9297V150H41.2832L41.1172 147.471ZM41.4297 145.303L42.2598 145.283C42.2598 145.986 42.1784 146.641 42.0156 147.246C41.8529 147.845 41.6087 148.366 41.2832 148.809C40.9577 149.245 40.5475 149.587 40.0527 149.834C39.5579 150.075 38.9753 150.195 38.3047 150.195C37.7904 150.195 37.3151 150.124 36.8789 149.98C36.4492 149.831 36.0781 149.6 35.7656 149.287C35.4596 148.968 35.2188 148.561 35.043 148.066C34.8737 147.565 34.7891 146.963 34.7891 146.26V139.434H37.6016V146.279C37.6016 146.592 37.6374 146.855 37.709 147.07C37.7871 147.285 37.8945 147.461 38.0312 147.598C38.168 147.734 38.3275 147.832 38.5098 147.891C38.6986 147.949 38.9069 147.979 39.1348 147.979C39.7142 147.979 40.1699 147.861 40.502 147.627C40.8405 147.393 41.0781 147.074 41.2148 146.67C41.3581 146.26 41.4297 145.804 41.4297 145.303ZM51.7812 147.617V142.91C51.7812 142.572 51.7259 142.282 51.6152 142.041C51.5046 141.794 51.332 141.602 51.0977 141.465C50.8698 141.328 50.5736 141.26 50.209 141.26C49.8965 141.26 49.6263 141.315 49.3984 141.426C49.1706 141.53 48.9948 141.683 48.8711 141.885C48.7474 142.08 48.6855 142.311 48.6855 142.578H45.873C45.873 142.129 45.9772 141.702 46.1855 141.299C46.3939 140.895 46.6966 140.54 47.0938 140.234C47.4909 139.922 47.9629 139.678 48.5098 139.502C49.0632 139.326 49.6816 139.238 50.3652 139.238C51.1855 139.238 51.9147 139.375 52.5527 139.648C53.1908 139.922 53.6921 140.332 54.0566 140.879C54.4277 141.426 54.6133 142.109 54.6133 142.93V147.451C54.6133 148.031 54.6491 148.506 54.7207 148.877C54.7923 149.242 54.8965 149.561 55.0332 149.834V150H52.1914C52.0547 149.714 51.9505 149.355 51.8789 148.926C51.8138 148.49 51.7812 148.053 51.7812 147.617ZM52.1523 143.564L52.1719 145.156H50.5996C50.2285 145.156 49.9062 145.199 49.6328 145.283C49.3594 145.368 49.1348 145.488 48.959 145.645C48.7832 145.794 48.653 145.97 48.5684 146.172C48.4902 146.374 48.4512 146.595 48.4512 146.836C48.4512 147.077 48.5065 147.295 48.6172 147.49C48.7279 147.679 48.8874 147.829 49.0957 147.939C49.304 148.044 49.5482 148.096 49.8281 148.096C50.2513 148.096 50.6191 148.011 50.9316 147.842C51.2441 147.673 51.485 147.464 51.6543 147.217C51.8301 146.969 51.9212 146.735 51.9277 146.514L52.6699 147.705C52.5658 147.972 52.4225 148.249 52.2402 148.535C52.0645 148.822 51.8398 149.092 51.5664 149.346C51.293 149.593 50.9642 149.798 50.5801 149.961C50.196 150.117 49.7402 150.195 49.2129 150.195C48.5423 150.195 47.9336 150.062 47.3867 149.795C46.8464 149.521 46.4167 149.147 46.0977 148.672C45.7852 148.19 45.6289 147.643 45.6289 147.031C45.6289 146.478 45.7331 145.986 45.9414 145.557C46.1497 145.127 46.4557 144.766 46.8594 144.473C47.2695 144.173 47.7806 143.949 48.3926 143.799C49.0046 143.643 49.7142 143.564 50.5215 143.564H52.1523ZM61.957 139.434V141.426H55.8047V139.434H61.957ZM57.3281 136.826H60.1406V146.816C60.1406 147.122 60.1797 147.357 60.2578 147.52C60.3424 147.682 60.4661 147.796 60.6289 147.861C60.7917 147.92 60.9967 147.949 61.2441 147.949C61.4199 147.949 61.5762 147.943 61.7129 147.93C61.8561 147.91 61.9766 147.891 62.0742 147.871L62.084 149.941C61.8431 150.02 61.5827 150.081 61.3027 150.127C61.0228 150.173 60.7135 150.195 60.375 150.195C59.7565 150.195 59.2161 150.094 58.7539 149.893C58.2982 149.684 57.9466 149.352 57.6992 148.896C57.4518 148.441 57.3281 147.842 57.3281 147.1V136.826ZM74.4668 145.635V135.781H77.3867V145.635C77.3867 146.585 77.1784 147.402 76.7617 148.086C76.3451 148.763 75.7754 149.284 75.0527 149.648C74.3366 150.013 73.5293 150.195 72.6309 150.195C71.6999 150.195 70.8763 150.039 70.1602 149.727C69.444 149.414 68.8809 148.936 68.4707 148.291C68.0605 147.64 67.8555 146.816 67.8555 145.82H70.7949C70.7949 146.341 70.8665 146.755 71.0098 147.061C71.1595 147.367 71.3711 147.585 71.6445 147.715C71.918 147.845 72.2467 147.91 72.6309 147.91C73.002 147.91 73.3242 147.822 73.5977 147.646C73.8711 147.471 74.0827 147.214 74.2324 146.875C74.3887 146.536 74.4668 146.123 74.4668 145.635ZM85.4141 147.617V142.91C85.4141 142.572 85.3587 142.282 85.248 142.041C85.1374 141.794 84.9648 141.602 84.7305 141.465C84.5026 141.328 84.2064 141.26 83.8418 141.26C83.5293 141.26 83.2591 141.315 83.0312 141.426C82.8034 141.53 82.6276 141.683 82.5039 141.885C82.3802 142.08 82.3184 142.311 82.3184 142.578H79.5059C79.5059 142.129 79.61 141.702 79.8184 141.299C80.0267 140.895 80.3294 140.54 80.7266 140.234C81.1237 139.922 81.5957 139.678 82.1426 139.502C82.696 139.326 83.3145 139.238 83.998 139.238C84.8184 139.238 85.5475 139.375 86.1855 139.648C86.8236 139.922 87.3249 140.332 87.6895 140.879C88.0605 141.426 88.2461 142.109 88.2461 142.93V147.451C88.2461 148.031 88.2819 148.506 88.3535 148.877C88.4251 149.242 88.5293 149.561 88.666 149.834V150H85.8242C85.6875 149.714 85.5833 149.355 85.5117 148.926C85.4466 148.49 85.4141 148.053 85.4141 147.617ZM85.7852 143.564L85.8047 145.156H84.2324C83.8613 145.156 83.5391 145.199 83.2656 145.283C82.9922 145.368 82.7676 145.488 82.5918 145.645C82.416 145.794 82.2858 145.97 82.2012 146.172C82.123 146.374 82.084 146.595 82.084 146.836C82.084 147.077 82.1393 147.295 82.25 147.49C82.3607 147.679 82.5202 147.829 82.7285 147.939C82.9368 148.044 83.181 148.096 83.4609 148.096C83.8841 148.096 84.252 148.011 84.5645 147.842C84.877 147.673 85.1178 147.464 85.2871 147.217C85.4629 146.969 85.554 146.735 85.5605 146.514L86.3027 147.705C86.1986 147.972 86.0553 148.249 85.873 148.535C85.6973 148.822 85.4727 149.092 85.1992 149.346C84.9258 149.593 84.597 149.798 84.2129 149.961C83.8288 150.117 83.373 150.195 82.8457 150.195C82.1751 150.195 81.5664 150.062 81.0195 149.795C80.4792 149.521 80.0495 149.147 79.7305 148.672C79.418 148.19 79.2617 147.643 79.2617 147.031C79.2617 146.478 79.3659 145.986 79.5742 145.557C79.7826 145.127 80.0885 144.766 80.4922 144.473C80.9023 144.173 81.4134 143.949 82.0254 143.799C82.6374 143.643 83.347 143.564 84.1543 143.564H85.7852ZM93.168 141.689V150H90.3555V139.434H92.9922L93.168 141.689ZM92.7578 144.346H91.9961C91.9961 143.564 92.097 142.861 92.2988 142.236C92.5007 141.605 92.7839 141.068 93.1484 140.625C93.513 140.176 93.946 139.834 94.4473 139.6C94.9551 139.359 95.5215 139.238 96.1465 139.238C96.6413 139.238 97.0938 139.31 97.5039 139.453C97.9141 139.596 98.2656 139.824 98.5586 140.137C98.8581 140.449 99.0859 140.863 99.2422 141.377C99.4049 141.891 99.4863 142.52 99.4863 143.262V150H96.6543V143.252C96.6543 142.783 96.5892 142.419 96.459 142.158C96.3288 141.898 96.1367 141.715 95.8828 141.611C95.6354 141.501 95.3294 141.445 94.9648 141.445C94.5872 141.445 94.2585 141.52 93.9785 141.67C93.7051 141.82 93.4772 142.028 93.2949 142.295C93.1191 142.555 92.9857 142.861 92.8945 143.213C92.8034 143.564 92.7578 143.942 92.7578 144.346ZM101.781 139.434H104.604V150.635C104.604 151.416 104.46 152.077 104.174 152.617C103.887 153.158 103.474 153.568 102.934 153.848C102.393 154.128 101.739 154.268 100.971 154.268C100.73 154.268 100.495 154.255 100.268 154.229C100.033 154.202 99.7923 154.16 99.5449 154.102L99.5547 151.943C99.7109 151.969 99.8639 151.989 100.014 152.002C100.157 152.021 100.303 152.031 100.453 152.031C100.746 152.031 100.99 151.982 101.186 151.885C101.381 151.787 101.527 151.634 101.625 151.426C101.729 151.224 101.781 150.96 101.781 150.635V139.434ZM101.557 136.68C101.557 136.27 101.7 135.931 101.986 135.664C102.279 135.397 102.663 135.264 103.139 135.264C103.62 135.264 104.005 135.397 104.291 135.664C104.577 135.931 104.721 136.27 104.721 136.68C104.721 137.09 104.577 137.428 104.291 137.695C104.005 137.962 103.62 138.096 103.139 138.096C102.663 138.096 102.279 137.962 101.986 137.695C101.7 137.428 101.557 137.09 101.557 136.68ZM109.809 139.434V150H106.986V139.434H109.809ZM106.811 136.68C106.811 136.27 106.954 135.931 107.24 135.664C107.527 135.397 107.911 135.264 108.393 135.264C108.868 135.264 109.249 135.397 109.535 135.664C109.828 135.931 109.975 136.27 109.975 136.68C109.975 137.09 109.828 137.428 109.535 137.695C109.249 137.962 108.868 138.096 108.393 138.096C107.911 138.096 107.527 137.962 107.24 137.695C106.954 137.428 106.811 137.09 106.811 136.68Z" fill="#FFB9B9"/>
<circle cx="65.4483" cy="60.4483" r="31.4483" fill="#FFB9B9"/>
<path d="M74.6103 49.2759H57.1827C56.1926 49.2768 55.2434 49.6292 54.5432 50.2556C53.8431 50.882 53.4493 51.7314 53.4482 52.6173V63.7552C53.4493 64.6411 53.8431 65.4904 54.5432 66.1169C55.2434 66.7433 56.1926 67.0956 57.1827 67.0966H71.6052L76.2198 71.2254C76.3939 71.3812 76.6157 71.4873 76.8571 71.5303C77.0986 71.5733 77.3489 71.5513 77.5764 71.467C77.8038 71.3827 77.9982 71.2399 78.135 71.0568C78.2718 70.8736 78.3448 70.6583 78.3448 70.438V52.6173C78.3437 51.7314 77.9499 50.882 77.2498 50.2556C76.5497 49.6292 75.6004 49.2768 74.6103 49.2759V49.2759ZM60.9172 59.3C60.671 59.3 60.4303 59.2347 60.2256 59.1123C60.0209 58.9899 59.8614 58.816 59.7671 58.6125C59.6729 58.4089 59.6483 58.185 59.6963 57.9689C59.7443 57.7529 59.8629 57.5544 60.037 57.3987C60.2111 57.2429 60.4329 57.1368 60.6744 57.0938C60.9158 57.0509 61.1661 57.0729 61.3936 57.1572C61.621 57.2415 61.8155 57.3843 61.9522 57.5674C62.089 57.7506 62.162 57.9659 62.162 58.1862C62.162 58.4816 62.0309 58.7649 61.7974 58.9738C61.564 59.1827 61.2474 59.3 60.9172 59.3V59.3ZM65.8965 59.3C65.6503 59.3 65.4096 59.2347 65.2049 59.1123C65.0002 58.9899 64.8407 58.816 64.7464 58.6125C64.6522 58.4089 64.6276 58.185 64.6756 57.9689C64.7236 57.7529 64.8422 57.5544 65.0163 57.3987C65.1904 57.2429 65.4122 57.1368 65.6537 57.0938C65.8951 57.0509 66.1454 57.0729 66.3729 57.1572C66.6004 57.2415 66.7948 57.3843 66.9316 57.5674C67.0683 57.7506 67.1413 57.9659 67.1413 58.1862C67.1413 58.4816 67.0102 58.7649 66.7767 58.9738C66.5433 59.1827 66.2267 59.3 65.8965 59.3ZM70.8758 59.3C70.6296 59.3 70.3889 59.2347 70.1842 59.1123C69.9795 58.9899 69.82 58.816 69.7258 58.6125C69.6315 58.4089 69.6069 58.185 69.6549 57.9689C69.703 57.7529 69.8215 57.5544 69.9956 57.3987C70.1697 57.2429 70.3915 57.1368 70.633 57.0938C70.8744 57.0509 71.1247 57.0729 71.3522 57.1572C71.5797 57.2415 71.7741 57.3843 71.9109 57.5674C72.0476 57.7506 72.1207 57.9659 72.1207 58.1862C72.1207 58.4816 71.9895 58.7649 71.7561 58.9738C71.5226 59.1827 71.206 59.3 70.8758 59.3Z" fill="white"/>
</svg>
