<svg width="85" height="28" viewBox="0 0 85 28" fill="none" xmlns="http://www.w3.org/2000/svg">
<g clip-path="url(#clip0_72_99)">
<path d="M19.9699 5.39307C20.9033 6.34208 21.369 7.65899 21.3669 9.3438V16.7059H17.4981V9.86429C17.5466 9.17892 17.3193 8.50241 16.866 7.98299C16.3722 7.55263 15.7374 7.31528 15.0801 7.31528C14.4228 7.31528 13.788 7.55263 13.2943 7.98299C13.067 8.23897 12.8927 8.53687 12.7816 8.85968C12.6704 9.18248 12.6244 9.52386 12.6463 9.86429V16.7059H8.76169V9.86429C8.78315 9.52365 8.73668 9.18215 8.62495 8.85933C8.51323 8.53652 8.33843 8.23872 8.11056 7.98299C7.6168 7.55263 6.982 7.31528 6.32472 7.31528C5.66744 7.31528 5.03264 7.55263 4.53887 7.98299C4.08551 8.50241 3.85819 9.17892 3.90671 9.86429V16.7059H-0.00634766V4.10751H3.88459V5.67526C4.29068 5.14003 4.82087 4.70981 5.43021 4.42106C6.10594 4.10567 6.84551 3.94799 7.59219 3.96014C8.48374 3.94474 9.36466 4.15403 10.1524 4.56843C10.8967 4.96827 11.5091 5.57246 11.9162 6.30864C12.367 5.60678 12.9845 5.02538 13.7146 4.61546C14.4671 4.17923 15.3244 3.95281 16.1959 3.96014C17.7784 3.97478 19.0364 4.45242 19.9699 5.39307Z" fill="#DF1B50"/>
<path d="M36.3649 11.3317H27.559C27.5705 12.0046 27.8434 12.647 28.3207 13.1252C28.7665 13.5408 29.3591 13.766 29.9707 13.7523C30.3939 13.7831 30.8163 13.6825 31.1793 13.4646C31.5423 13.2466 31.828 12.922 31.9967 12.5357H36.1374C35.9292 13.3561 35.537 14.1192 34.99 14.7682C34.4263 15.4425 33.7135 15.979 32.907 16.3359C32.0254 16.722 31.0701 16.9145 30.1066 16.9003C28.9496 16.9212 27.8063 16.6492 26.7846 16.1102C25.8228 15.5906 25.0326 14.8068 24.5088 13.8526C23.9445 12.7923 23.6658 11.6053 23.6997 10.4067C23.6717 9.2131 23.9489 8.0319 24.5057 6.97335C25.0232 6.01783 25.8109 5.23315 26.7719 4.71579C27.7975 4.20004 28.9304 3.92945 30.0802 3.92564C31.23 3.92183 32.3648 4.1849 33.3938 4.69384C34.339 5.19519 35.1174 5.95757 35.6348 6.88869C36.1921 7.90534 36.4711 9.04912 36.444 10.2061C36.4402 10.5825 36.4138 10.9584 36.3649 11.3317V11.3317ZM32.4519 9.18701C32.4627 8.89179 32.407 8.5979 32.2889 8.3267C32.1708 8.05551 31.9932 7.81384 31.7691 7.61927C31.2933 7.22045 30.6849 7.01146 30.0623 7.03293C29.4613 7.01462 28.8743 7.2154 28.4124 7.59731C27.9448 8.01081 27.6486 8.58177 27.5811 9.19956L32.4519 9.18701Z" fill="#DF1B50"/>
<path d="M67.4292 11.2878C66.303 11.2791 65.2094 11.6618 64.338 12.3695C63.6846 12.9371 62.8569 13.2686 61.9895 13.3102C61.3209 13.3098 60.6616 13.1541 60.0646 12.8555C59.6929 12.651 59.3594 12.3848 59.0784 12.0685C58.3325 11.2324 57.9605 10.1256 57.9626 8.74805C57.9648 7.37052 58.3367 6.26473 59.0784 5.43069C59.3597 5.11263 59.6945 4.84531 60.0677 4.64054C60.6635 4.34192 61.322 4.18721 61.9895 4.18903C62.8691 4.23361 63.7067 4.57552 64.3632 5.1579C65.1544 5.83575 66.1626 6.2125 67.208 6.22084H67.3534C67.6201 6.22033 67.8818 6.14904 68.1114 6.01437C68.341 5.8797 68.5301 5.68655 68.6591 5.45495C68.7881 5.22335 68.8523 4.96174 68.845 4.69724C68.8377 4.43274 68.7592 4.175 68.6177 3.95073C68.1605 3.25618 67.5813 2.64871 66.9077 2.15723C65.4929 1.1439 63.7813 0.62053 62.0369 0.667864C60.5859 0.643444 59.1538 0.996982 57.8836 1.69318C56.6816 2.36416 55.6953 3.35878 55.0389 4.56216C54.3659 5.85479 54.0148 7.28849 54.0148 8.74334C54.0148 10.1982 54.3659 11.6319 55.0389 12.9245C55.6977 14.123 56.6836 15.113 57.8836 15.781L58.0006 15.8437V20.6002C58.0006 21.4584 57.6569 22.2815 57.0452 22.8883C56.4334 23.4951 55.6038 23.8361 54.7386 23.8361C53.8735 23.8361 53.0438 23.4951 52.4321 22.8883C51.8204 22.2815 51.4767 21.4584 51.4767 20.6002V1.92834C51.4564 1.42996 51.2426 0.958668 50.88 0.61315C50.5174 0.267632 50.034 0.0746765 49.5312 0.0746765C49.0284 0.0746765 48.5451 0.267632 48.1825 0.61315C47.8198 0.958668 47.606 1.42996 47.5858 1.92834V5.84457C47.1758 5.24526 46.6145 4.76309 45.958 4.44615C45.2474 4.09551 44.4631 3.91713 43.6695 3.92565C42.6647 3.91403 41.6775 4.18823 40.8248 4.71579C39.9545 5.26724 39.2571 6.04923 38.8114 6.97336C38.3239 8.04674 38.0718 9.21061 38.0718 10.3879C38.0718 11.5652 38.3239 12.7291 38.8114 13.8025C39.2564 14.7337 39.9535 15.5239 40.8248 16.0851C41.6755 16.6183 42.6634 16.8959 43.6695 16.8847C44.489 16.9038 45.3001 16.7172 46.0275 16.3422C46.67 16.0117 47.209 15.5129 47.5858 14.8999V20.9138C47.5858 22.7957 48.3394 24.6005 49.6808 25.9311C51.0222 27.2618 52.8416 28.0094 54.7386 28.0094C56.6357 28.0094 58.4551 27.2618 59.7965 25.9311C61.1379 24.6005 61.8915 22.7957 61.8915 20.9138V16.8376H62.0369C63.7796 16.8835 65.4898 16.3639 66.9077 15.3577C67.6031 14.8531 68.198 14.2248 68.6619 13.5046C68.8081 13.2804 68.886 13.0191 68.8863 12.7521C68.8884 12.5608 68.8523 12.371 68.78 12.1936C68.7078 12.0163 68.6008 11.8549 68.4654 11.7187C68.3299 11.5826 68.1686 11.4744 67.9907 11.4004C67.8129 11.3265 67.6221 11.2882 67.4292 11.2878V11.2878ZM46.7734 12.6862C46.5203 12.9516 46.2152 13.163 45.8769 13.3075C45.5386 13.452 45.1742 13.5265 44.8059 13.5265C44.4375 13.5265 44.0731 13.452 43.7348 13.3075C43.3965 13.163 43.0914 12.9516 42.8383 12.6862C42.2745 12.0591 41.9837 11.2363 42.0291 10.3973C42.0049 9.98455 42.0641 9.57116 42.203 9.18135C42.342 8.79155 42.5579 8.43317 42.8383 8.12722C43.093 7.86462 43.3986 7.65572 43.7367 7.51304C44.0748 7.37035 44.4384 7.2968 44.8059 7.2968C45.1733 7.2968 45.5369 7.37035 45.875 7.51304C46.2131 7.65572 46.5187 7.86462 46.7734 8.12722C47.2973 8.77332 47.5829 9.57758 47.5829 10.4067C47.5829 11.2359 47.2973 12.0401 46.7734 12.6862V12.6862Z" fill="#00A651"/>
<path d="M72.3347 6.97337C72.7794 6.04859 73.4771 5.26634 74.3481 4.7158C75.2008 4.18824 76.188 3.91404 77.1929 3.92566C78.0112 3.90838 78.8208 4.09487 79.5477 4.4681C80.1863 4.79551 80.7245 5.28716 81.1059 5.89161V4.10752H84.9969V16.7059H81.1059V14.9219C80.7108 15.5221 80.1666 16.0113 79.5255 16.3422C78.7992 16.7169 77.9892 16.9034 77.1707 16.8847C76.1718 16.8942 75.1914 16.6165 74.3481 16.0851C73.476 15.5248 72.7788 14.7343 72.3347 13.8025C71.8472 12.7291 71.5951 11.5652 71.5951 10.3879C71.5951 9.21062 71.8472 8.04675 72.3347 6.97337ZM80.2999 8.12723C80.0449 7.86454 79.739 7.65558 79.4007 7.51285C79.0623 7.37013 78.6984 7.29657 78.3307 7.29657C77.9631 7.29657 77.5992 7.37013 77.2608 7.51285C76.9225 7.65558 76.6166 7.86454 76.3616 8.12723C76.0826 8.43406 75.8674 8.79257 75.7286 9.18216C75.5897 9.57174 75.5298 9.98471 75.5524 10.3973C75.5087 11.2361 75.7993 12.0583 76.3616 12.6862C76.615 12.9517 76.9203 13.1632 77.2589 13.3077C77.5975 13.4522 77.9622 13.5267 78.3307 13.5267C78.6993 13.5267 79.064 13.4522 79.4026 13.3077C79.7412 13.1632 80.0465 12.9517 80.2999 12.6862C80.8216 12.0392 81.1058 11.2353 81.1058 10.4067C81.1058 9.57818 80.8216 8.7743 80.2999 8.12723Z" fill="#DF1B50"/>
<path d="M41.89 15.3294L41.9438 15.4643Z" fill="#100E0E"/>
</g>
<defs>
<clipPath id="clip0_72_99">
<rect width="85" height="28" fill="white"/>
</clipPath>
</defs>
</svg>
