<svg width="282" height="76" viewBox="0 0 282 76" fill="none" xmlns="http://www.w3.org/2000/svg">
<g clip-path="url(#clip0_395_482)">
<path d="M44.8735 11.9418C46.9711 14.0431 48.0176 16.9591 48.0128 20.6898V36.9917H39.3194V21.8423C39.4284 20.3247 38.9176 18.8267 37.8989 17.6766C36.7894 16.7236 35.3629 16.1981 33.886 16.1981C32.409 16.1981 30.9826 16.7236 29.8731 17.6766C29.3623 18.2434 28.9709 18.903 28.721 19.6178C28.4712 20.3326 28.3679 21.0885 28.4171 21.8423V36.9917H19.6881V21.8423C19.7363 21.088 19.6319 20.3318 19.3809 19.617C19.1298 18.9022 18.737 18.2428 18.225 17.6766C17.1155 16.7236 15.6891 16.1981 14.2121 16.1981C12.7352 16.1981 11.3087 16.7236 10.1992 17.6766C9.18049 18.8267 8.66968 20.3247 8.77872 21.8423V36.9917H-0.0141602V9.09516H8.729V12.5666C9.64151 11.3815 10.8329 10.4288 12.2021 9.78945C13.7205 9.09107 15.3824 8.74194 17.0602 8.76885C19.0636 8.73473 21.043 9.19817 22.8132 10.1158C24.4857 11.0011 25.8617 12.339 26.7764 13.9691C27.7894 12.415 29.1771 11.1276 30.8177 10.2199C32.5085 9.25395 34.4349 8.7526 36.3932 8.76885C39.9491 8.80125 42.7759 9.85888 44.8735 11.9418Z" fill="#DF1B50"/>
<path d="M81.7139 25.0916H61.9264C61.9523 26.5815 62.5654 28.0041 63.6381 29.0629C64.6398 29.9831 65.9713 30.4818 67.3456 30.4515C68.2965 30.5197 69.2457 30.2971 70.0614 29.8144C70.8772 29.3317 71.5191 28.6129 71.8982 27.7577H81.2025C80.7347 29.5742 79.8534 31.2639 78.6243 32.701C77.3576 34.1942 75.756 35.382 73.9438 36.1724C71.9628 37.0273 69.8162 37.4536 67.651 37.4222C65.0511 37.4683 62.4821 36.8661 60.1862 35.6726C58.025 34.5221 56.2493 32.7864 55.0725 30.6737C53.8045 28.3257 53.1782 25.6974 53.2542 23.0434C53.1913 20.4004 53.8144 17.7849 55.0654 15.441C56.2283 13.3252 57.9983 11.5877 60.1578 10.4421C62.4623 9.30008 65.0081 8.70091 67.5918 8.69247C70.1755 8.68403 72.7253 9.26656 75.0375 10.3935C77.1614 11.5036 78.9105 13.1917 80.0732 15.2535C81.3255 17.5047 81.9524 20.0373 81.8914 22.5991C81.883 23.4326 81.8237 24.265 81.7139 25.0916V25.0916ZM72.921 20.3427C72.9452 19.689 72.8201 19.0382 72.5547 18.4377C72.2893 17.8372 71.8904 17.3021 71.3869 16.8712C70.3176 15.9881 68.9505 15.5254 67.5515 15.5729C66.201 15.5323 64.882 15.9769 63.844 16.8226C62.7933 17.7382 62.1277 19.0025 61.9761 20.3704L72.921 20.3427Z" fill="#DF1B50"/>
<path d="M151.517 24.9944C148.987 24.9751 146.529 25.8226 144.571 27.3897C143.103 28.6464 141.243 29.3805 139.294 29.4726C137.791 29.4716 136.31 29.1269 134.968 28.4658C134.133 28.0129 133.384 27.4235 132.752 26.7232C131.076 24.8717 130.241 22.4209 130.245 19.3707C130.25 16.3204 131.086 13.8719 132.752 12.0251C133.385 11.3208 134.137 10.7289 134.976 10.2755C136.314 9.61424 137.794 9.27167 139.294 9.2757C141.27 9.37441 143.153 10.1315 144.628 11.4211C146.405 12.922 148.671 13.7562 151.02 13.7747H151.347C151.946 13.7736 152.534 13.6157 153.05 13.3175C153.566 13.0193 153.991 12.5916 154.281 12.0788C154.571 11.566 154.715 10.9867 154.699 10.401C154.682 9.81535 154.506 9.24463 154.188 8.74804C153.16 7.21011 151.859 5.86499 150.345 4.7767C147.166 2.5329 143.32 1.37402 139.4 1.47883C136.14 1.42476 132.922 2.20759 130.068 3.74917C127.367 5.23491 125.151 7.43728 123.675 10.1019C122.163 12.9642 121.374 16.1388 121.374 19.3602C121.374 22.5817 122.163 25.7563 123.675 28.6186C125.156 31.2723 127.371 33.4644 130.068 34.9436L130.33 35.0824V45.6148C130.33 47.5151 129.558 49.3375 128.184 50.6812C126.809 52.0249 124.945 52.7798 123.001 52.7798C121.057 52.7798 119.192 52.0249 117.818 50.6812C116.443 49.3375 115.671 47.5151 115.671 45.6148V4.26989C115.625 3.16633 115.145 2.12275 114.33 1.35768C113.515 0.592603 112.429 0.165344 111.299 0.165344C110.17 0.165344 109.084 0.592603 108.269 1.35768C107.454 2.12275 106.973 3.16633 106.928 4.26989V12.9415C106.006 11.6145 104.745 10.5468 103.27 9.84503C101.673 9.06862 99.911 8.67363 98.1278 8.6925C95.8699 8.66678 93.6516 9.27393 91.7356 10.4421C89.7799 11.6632 88.2128 13.3947 87.2113 15.441C86.1158 17.8178 85.5493 20.3949 85.5493 23.0018C85.5493 25.6087 86.1158 28.1858 87.2113 30.5626C88.2113 32.6246 89.7776 34.3744 91.7356 35.617C93.647 36.7976 95.867 37.4124 98.1278 37.3875C99.9693 37.4299 101.792 37.0167 103.426 36.1863C104.87 35.4545 106.081 34.3499 106.928 32.9926V46.3091C106.928 50.4761 108.621 54.4724 111.635 57.419C114.65 60.3655 118.738 62.0208 123.001 62.0208C127.264 62.0208 131.352 60.3655 134.366 57.419C137.38 54.4724 139.074 50.4761 139.074 46.3091V37.2833H139.4C143.316 37.3849 147.159 36.2343 150.345 34.0063C151.908 32.889 153.245 31.4977 154.287 29.903C154.616 29.4065 154.791 28.828 154.791 28.2367C154.796 27.8132 154.715 27.3929 154.553 27.0002C154.39 26.6075 154.15 26.25 153.846 25.9486C153.541 25.6471 153.179 25.4076 152.779 25.2438C152.379 25.0801 151.951 24.9953 151.517 24.9944ZM105.102 28.0909C104.534 28.6786 103.848 29.1467 103.088 29.4666C102.328 29.7865 101.509 29.9515 100.681 29.9515C99.8535 29.9515 99.0346 29.7865 98.2744 29.4666C97.5142 29.1467 96.8287 28.6786 96.2599 28.0909C94.9931 26.7024 94.3395 24.8804 94.4416 23.0226C94.3874 22.1086 94.5202 21.1933 94.8324 20.3301C95.1447 19.467 95.6299 18.6734 96.2599 17.996C96.8324 17.4145 97.5191 16.9519 98.2788 16.636C99.0385 16.32 99.8556 16.1572 100.681 16.1572C101.507 16.1572 102.324 16.32 103.084 16.636C103.843 16.9519 104.53 17.4145 105.102 17.996C106.28 19.4266 106.921 21.2075 106.921 23.0434C106.921 24.8794 106.28 26.6603 105.102 28.0909Z" fill="#00A651"/>
<path d="M162.54 15.441C163.54 13.3933 165.107 11.6612 167.065 10.4421C168.981 9.27392 171.199 8.66678 173.457 8.6925C175.296 8.65424 177.115 9.06718 178.748 9.89361C180.183 10.6186 181.393 11.7072 182.25 13.0457V9.09518H190.993V36.9917H182.25V33.0412C181.362 34.3703 180.139 35.4535 178.699 36.1863C177.066 37.0159 175.246 37.429 173.407 37.3875C171.162 37.4086 168.96 36.7937 167.065 35.617C165.105 34.3764 163.538 32.626 162.54 30.5626C161.445 28.1858 160.878 25.6087 160.878 23.0018C160.878 20.3949 161.445 17.8178 162.54 15.441ZM180.439 17.996C179.866 17.4143 179.178 16.9516 178.418 16.6356C177.658 16.3195 176.84 16.1567 176.014 16.1567C175.188 16.1567 174.37 16.3195 173.61 16.6356C172.849 16.9516 172.162 17.4143 171.589 17.996C170.962 18.6754 170.479 19.4692 170.167 20.3319C169.855 21.1945 169.72 22.109 169.771 23.0226C169.673 24.8799 170.326 26.7004 171.589 28.0909C172.158 28.6788 172.845 29.147 173.605 29.467C174.366 29.787 175.186 29.952 176.014 29.952C176.842 29.952 177.662 29.787 178.422 29.467C179.183 29.147 179.869 28.6788 180.439 28.0909C181.611 26.6581 182.249 24.8781 182.249 23.0434C182.249 21.2088 181.611 19.4288 180.439 17.996Z" fill="#DF1B50"/>
<path d="M94.1294 33.9438L94.2501 34.2423Z" fill="#100E0E"/>
</g>
<path d="M153.143 67H147.57L147.605 62.8867H153.143C154.525 62.8867 155.691 62.5762 156.641 61.9551C157.59 61.3223 158.305 60.4023 158.785 59.1953C159.277 57.9883 159.523 56.5293 159.523 54.8184V53.5703C159.523 52.2578 159.383 51.1035 159.102 50.1074C158.832 49.1113 158.428 48.2734 157.889 47.5938C157.35 46.9141 156.688 46.4043 155.902 46.0645C155.117 45.7129 154.215 45.5371 153.195 45.5371H147.465V41.4062H153.195C154.906 41.4062 156.471 41.6992 157.889 42.2852C159.318 42.8594 160.555 43.6855 161.598 44.7637C162.641 45.8418 163.443 47.1309 164.006 48.6309C164.58 50.1191 164.867 51.7773 164.867 53.6055V54.8184C164.867 56.6348 164.58 58.293 164.006 59.793C163.443 61.293 162.641 62.582 161.598 63.6602C160.566 64.7266 159.33 65.5527 157.889 66.1387C156.459 66.7129 154.877 67 153.143 67ZM150.559 41.4062V67H145.285V41.4062H150.559ZM167.574 57.6836V57.3145C167.574 55.9199 167.773 54.6367 168.172 53.4648C168.57 52.2812 169.15 51.2559 169.912 50.3887C170.674 49.5215 171.611 48.8477 172.725 48.3672C173.838 47.875 175.115 47.6289 176.557 47.6289C177.998 47.6289 179.281 47.875 180.406 48.3672C181.531 48.8477 182.475 49.5215 183.236 50.3887C184.01 51.2559 184.596 52.2812 184.994 53.4648C185.393 54.6367 185.592 55.9199 185.592 57.3145V57.6836C185.592 59.0664 185.393 60.3496 184.994 61.5332C184.596 62.7051 184.01 63.7305 183.236 64.6094C182.475 65.4766 181.537 66.1504 180.424 66.6309C179.311 67.1113 178.033 67.3516 176.592 67.3516C175.15 67.3516 173.867 67.1113 172.742 66.6309C171.629 66.1504 170.686 65.4766 169.912 64.6094C169.15 63.7305 168.57 62.7051 168.172 61.5332C167.773 60.3496 167.574 59.0664 167.574 57.6836ZM172.637 57.3145V57.6836C172.637 58.4805 172.707 59.2246 172.848 59.916C172.988 60.6074 173.211 61.2168 173.516 61.7441C173.832 62.2598 174.242 62.6641 174.746 62.957C175.25 63.25 175.865 63.3965 176.592 63.3965C177.295 63.3965 177.898 63.25 178.402 62.957C178.906 62.6641 179.311 62.2598 179.615 61.7441C179.92 61.2168 180.143 60.6074 180.283 59.916C180.436 59.2246 180.512 58.4805 180.512 57.6836V57.3145C180.512 56.541 180.436 55.8145 180.283 55.1348C180.143 54.4434 179.914 53.834 179.598 53.3066C179.293 52.7676 178.889 52.3457 178.385 52.041C177.881 51.7363 177.271 51.584 176.557 51.584C175.842 51.584 175.232 51.7363 174.729 52.041C174.236 52.3457 173.832 52.7676 173.516 53.3066C173.211 53.834 172.988 54.4434 172.848 55.1348C172.707 55.8145 172.637 56.541 172.637 57.3145ZM193.766 39.9824V67H188.703V39.9824H193.766ZM205.754 47.9805L197.492 57.4023L193.062 61.8848L191.217 58.2285L194.732 53.7637L199.672 47.9805H205.754ZM200.498 67L194.873 58.2109L198.371 55.1523L206.334 67H200.498Z" fill="#00A651"/>
<path d="M217.25 47.9805V51.5664H206.176V47.9805H217.25ZM208.918 43.2871H213.98V61.2695C213.98 61.8203 214.051 62.2422 214.191 62.5352C214.344 62.8281 214.566 63.0332 214.859 63.1504C215.152 63.2559 215.521 63.3086 215.967 63.3086C216.283 63.3086 216.564 63.2969 216.811 63.2734C217.068 63.2383 217.285 63.2031 217.461 63.168L217.479 66.8945C217.045 67.0352 216.576 67.1465 216.072 67.2285C215.568 67.3105 215.012 67.3516 214.402 67.3516C213.289 67.3516 212.316 67.1699 211.484 66.8066C210.664 66.4316 210.031 65.834 209.586 65.0137C209.141 64.1934 208.918 63.1152 208.918 61.7793V43.2871ZM228.887 67.3516C227.41 67.3516 226.086 67.1172 224.914 66.6484C223.742 66.168 222.746 65.5059 221.926 64.6621C221.117 63.8184 220.496 62.8398 220.062 61.7266C219.629 60.6016 219.412 59.4062 219.412 58.1406V57.4375C219.412 55.9961 219.617 54.6777 220.027 53.4824C220.438 52.2871 221.023 51.25 221.785 50.3711C222.559 49.4922 223.496 48.8184 224.598 48.3496C225.699 47.8691 226.941 47.6289 228.324 47.6289C229.672 47.6289 230.867 47.8516 231.91 48.2969C232.953 48.7422 233.826 49.375 234.529 50.1953C235.244 51.0156 235.783 52 236.146 53.1484C236.51 54.2852 236.691 55.5508 236.691 56.9453V59.0547H221.574V55.6797H231.717V55.293C231.717 54.5898 231.588 53.9629 231.33 53.4121C231.084 52.8496 230.709 52.4043 230.205 52.0762C229.701 51.748 229.057 51.584 228.271 51.584C227.604 51.584 227.029 51.7305 226.549 52.0234C226.068 52.3164 225.676 52.7266 225.371 53.2539C225.078 53.7812 224.855 54.4023 224.703 55.1172C224.562 55.8203 224.492 56.5938 224.492 57.4375V58.1406C224.492 58.9023 224.598 59.6055 224.809 60.25C225.031 60.8945 225.342 61.4512 225.74 61.9199C226.15 62.3887 226.643 62.752 227.217 63.0098C227.803 63.2676 228.465 63.3965 229.203 63.3965C230.117 63.3965 230.967 63.2207 231.752 62.8691C232.549 62.5059 233.234 61.9609 233.809 61.2344L236.27 63.9062C235.871 64.4805 235.326 65.0312 234.635 65.5586C233.955 66.0859 233.135 66.5195 232.174 66.8594C231.213 67.1875 230.117 67.3516 228.887 67.3516ZM244.637 52.1289V67H239.574V47.9805H244.338L244.637 52.1289ZM250.367 47.8574L250.279 52.5508C250.033 52.5156 249.734 52.4863 249.383 52.4629C249.043 52.4277 248.732 52.4102 248.451 52.4102C247.736 52.4102 247.115 52.5039 246.588 52.6914C246.072 52.8672 245.639 53.1309 245.287 53.4824C244.947 53.834 244.689 54.2617 244.514 54.7656C244.35 55.2695 244.256 55.8438 244.232 56.4883L243.213 56.1719C243.213 54.9414 243.336 53.8105 243.582 52.7793C243.828 51.7363 244.186 50.8281 244.654 50.0547C245.135 49.2812 245.721 48.6836 246.412 48.2617C247.104 47.8398 247.895 47.6289 248.785 47.6289C249.066 47.6289 249.354 47.6523 249.646 47.6992C249.939 47.7344 250.18 47.7871 250.367 47.8574Z" fill="#DF1B50"/>
<defs>
<clipPath id="clip0_395_482">
<rect width="191" height="62" fill="white"/>
</clipPath>
</defs>
</svg>
