<svg width="256" height="81" viewBox="0 0 256 81" fill="none" xmlns="http://www.w3.org/2000/svg">
<g clip-path="url(#clip0_352_153)">
<path d="M44.8735 11.9418C46.9711 14.0431 48.0176 16.9591 48.0128 20.6898V36.9917H39.3194V21.8423C39.4284 20.3247 38.9176 18.8267 37.8989 17.6766C36.7894 16.7236 35.3629 16.1981 33.886 16.1981C32.409 16.1981 30.9826 16.7236 29.8731 17.6766C29.3623 18.2434 28.9709 18.903 28.721 19.6178C28.4712 20.3326 28.3679 21.0885 28.4171 21.8423V36.9917H19.6881V21.8423C19.7363 21.088 19.6319 20.3318 19.3809 19.617C19.1298 18.9022 18.737 18.2428 18.225 17.6766C17.1155 16.7236 15.6891 16.1981 14.2121 16.1981C12.7352 16.1981 11.3087 16.7236 10.1992 17.6766C9.18048 18.8267 8.66968 20.3247 8.77872 21.8423V36.9917H-0.0141602V9.09516H8.729V12.5666C9.64151 11.3815 10.8329 10.4288 12.2021 9.78945C13.7205 9.09107 15.3824 8.74194 17.0602 8.76885C19.0636 8.73473 21.043 9.19817 22.8132 10.1158C24.4857 11.0011 25.8617 12.339 26.7764 13.9691C27.7894 12.415 29.1771 11.1276 30.8177 10.2199C32.5085 9.25395 34.4349 8.7526 36.3932 8.76885C39.9491 8.80125 42.7759 9.85888 44.8735 11.9418Z" fill="#DF1B50"/>
<path d="M81.7141 25.0916H61.9266C61.9525 26.5815 62.5657 28.0041 63.6383 29.0629C64.6401 29.9831 65.9715 30.4818 67.3458 30.4515C68.2968 30.5197 69.2459 30.2971 70.0617 29.8144C70.8774 29.3317 71.5193 28.6129 71.8985 27.7577H81.2027C80.735 29.5742 79.8537 31.2639 78.6245 32.701C77.3578 34.1942 75.7562 35.382 73.944 36.1724C71.963 37.0273 69.8164 37.4536 67.6512 37.4222C65.0513 37.4683 62.4823 36.8661 60.1865 35.6726C58.0252 34.5221 56.2496 32.7864 55.0727 30.6737C53.8047 28.3257 53.1785 25.6974 53.2545 23.0434C53.1916 20.4004 53.8147 17.7849 55.0656 15.441C56.2285 13.3252 57.9985 11.5877 60.1581 10.4421C62.4626 9.30008 65.0084 8.70091 67.592 8.69247C70.1757 8.68403 72.7256 9.26656 75.0378 10.3935C77.1616 11.5036 78.9108 13.1917 80.0735 15.2535C81.3257 17.5047 81.9526 20.0373 81.8917 22.5991C81.8832 23.4326 81.8239 24.265 81.7141 25.0916ZM72.9212 20.3427C72.9455 19.689 72.8203 19.0382 72.555 18.4377C72.2896 17.8372 71.8906 17.3021 71.3871 16.8712C70.3178 15.9881 68.9508 15.5254 67.5518 15.5729C66.2012 15.5323 64.8822 15.9769 63.8443 16.8226C62.7936 17.7382 62.1279 19.0025 61.9763 20.3704L72.9212 20.3427Z" fill="#DF1B50"/>
<path d="M151.517 24.9943C148.987 24.975 146.529 25.8225 144.571 27.3896C143.103 28.6463 141.243 29.3804 139.294 29.4725C137.792 29.4716 136.31 29.1268 134.969 28.4658C134.133 28.0129 133.384 27.4235 132.753 26.7231C131.076 24.8717 130.241 22.4209 130.245 19.3706C130.25 16.3204 131.086 13.8718 132.753 12.025C133.385 11.3208 134.137 10.7288 134.976 10.2754C136.314 9.61418 137.794 9.27161 139.294 9.27564C141.27 9.37435 143.153 10.1314 144.628 11.421C146.406 12.9219 148.671 13.7562 151.02 13.7746H151.347C151.946 13.7735 152.534 13.6157 153.05 13.3175C153.566 13.0193 153.991 12.5916 154.281 12.0788C154.571 11.5659 154.715 10.9866 154.699 10.401C154.682 9.81529 154.506 9.24457 154.188 8.74798C153.161 7.21005 151.859 5.86493 150.345 4.77664C147.166 2.53284 143.32 1.37396 139.4 1.47877C136.14 1.4247 132.922 2.20753 130.068 3.74911C127.367 5.23485 125.151 7.43722 123.676 10.1018C122.163 12.9641 121.374 16.1387 121.374 19.3602C121.374 22.5816 122.163 25.7563 123.676 28.6185C125.156 31.2722 127.371 33.4644 130.068 34.9435L130.331 35.0823V45.6147C130.331 47.515 129.558 49.3375 128.184 50.6812C126.809 52.0249 124.945 52.7798 123.001 52.7798C121.057 52.7798 119.193 52.0249 117.818 50.6812C116.443 49.3375 115.671 47.515 115.671 45.6147V4.26983C115.626 3.16627 115.145 2.12269 114.33 1.35762C113.515 0.592542 112.429 0.165283 111.3 0.165283C110.17 0.165283 109.084 0.592542 108.269 1.35762C107.454 2.12269 106.973 3.16627 106.928 4.26983V12.9415C106.007 11.6144 104.745 10.5468 103.27 9.84496C101.674 9.06856 99.9112 8.67357 98.128 8.69244C95.87 8.66672 93.6517 9.27387 91.7357 10.442C89.7801 11.6631 88.2129 13.3947 87.2114 15.4409C86.1159 17.8177 85.5494 20.3948 85.5494 23.0017C85.5494 25.6086 86.1159 28.1858 87.2114 30.5625C88.2114 32.6245 89.7778 34.3744 91.7357 35.617C93.6471 36.7975 95.8671 37.4124 98.128 37.3874C99.9694 37.4298 101.792 37.0167 103.426 36.1863C104.87 35.4545 106.081 34.3499 106.928 32.9926V46.309C106.928 50.476 108.621 54.4724 111.636 57.4189C114.65 60.3654 118.738 62.0208 123.001 62.0208C127.264 62.0208 131.352 60.3654 134.366 57.4189C137.38 54.4724 139.074 50.476 139.074 46.309V37.2833H139.4C143.316 37.3849 147.159 36.2343 150.345 34.0062C151.908 32.889 153.245 31.4976 154.287 29.903C154.616 29.4065 154.791 28.8279 154.792 28.2367C154.796 27.8131 154.715 27.3928 154.553 27.0001C154.39 26.6074 154.15 26.25 153.846 25.9485C153.541 25.6471 153.179 25.4076 152.779 25.2438C152.38 25.08 151.951 24.9952 151.517 24.9943ZM105.103 28.0909C104.534 28.6785 103.848 29.1466 103.088 29.4665C102.328 29.7864 101.509 29.9514 100.681 29.9514C99.8537 29.9514 99.0347 29.7864 98.2745 29.4665C97.5143 29.1466 96.8288 28.6785 96.26 28.0909C94.9933 26.7023 94.3397 24.8804 94.4418 23.0226C94.3875 22.1086 94.5203 21.1932 94.8326 20.3301C95.1448 19.4669 95.6301 18.6734 96.26 17.9959C96.8325 17.4144 97.5192 16.9519 98.2789 16.6359C99.0386 16.32 99.8557 16.1571 100.681 16.1571C101.507 16.1571 102.324 16.32 103.084 16.6359C103.843 16.9519 104.53 17.4144 105.103 17.9959C106.28 19.4266 106.921 21.2074 106.921 23.0434C106.921 24.8793 106.28 26.6602 105.103 28.0909Z" fill="#00A651"/>
<path d="M162.54 15.441C163.54 13.3933 165.107 11.6612 167.065 10.4421C168.981 9.27392 171.199 8.66678 173.457 8.6925C175.296 8.65424 177.115 9.06718 178.748 9.89361C180.183 10.6186 181.393 11.7072 182.25 13.0457V9.09518H190.993V36.9917H182.25V33.0412C181.362 34.3703 180.139 35.4535 178.698 36.1863C177.066 37.0159 175.246 37.429 173.407 37.3875C171.162 37.4086 168.959 36.7937 167.065 35.617C165.105 34.3764 163.538 32.626 162.54 30.5626C161.445 28.1858 160.878 25.6087 160.878 23.0018C160.878 20.3949 161.445 17.8178 162.54 15.441ZM180.439 17.996C179.865 17.4143 179.178 16.9516 178.418 16.6356C177.658 16.3195 176.84 16.1567 176.014 16.1567C175.188 16.1567 174.37 16.3195 173.61 16.6356C172.849 16.9516 172.162 17.4143 171.589 17.996C170.962 18.6754 170.479 19.4692 170.166 20.3319C169.854 21.1945 169.72 22.109 169.771 23.0226C169.672 24.8799 170.325 26.7004 171.589 28.0909C172.158 28.6788 172.844 29.147 173.605 29.467C174.366 29.787 175.185 29.952 176.014 29.952C176.842 29.952 177.661 29.787 178.422 29.467C179.183 29.147 179.869 28.6788 180.439 28.0909C181.611 26.6581 182.249 24.8781 182.249 23.0434C182.249 21.2088 181.611 19.4288 180.439 17.996Z" fill="#DF1B50"/>
<path d="M94.1292 33.9438L94.2499 34.2424L94.1292 33.9438Z" fill="#100E0E"/>
</g>
<path d="M178.115 44.4062V70H172.842L162.559 52.8438V70H157.285V44.4062H162.559L172.859 61.5801V44.4062H178.115ZM191.141 70.3516C189.664 70.3516 188.34 70.1172 187.168 69.6484C185.996 69.168 185 68.5059 184.18 67.6621C183.371 66.8184 182.75 65.8398 182.316 64.7266C181.883 63.6016 181.666 62.4062 181.666 61.1406V60.4375C181.666 58.9961 181.871 57.6777 182.281 56.4824C182.691 55.2871 183.277 54.25 184.039 53.3711C184.812 52.4922 185.75 51.8184 186.852 51.3496C187.953 50.8691 189.195 50.6289 190.578 50.6289C191.926 50.6289 193.121 50.8516 194.164 51.2969C195.207 51.7422 196.08 52.375 196.783 53.1953C197.498 54.0156 198.037 55 198.4 56.1484C198.764 57.2852 198.945 58.5508 198.945 59.9453V62.0547H183.828V58.6797H193.971V58.293C193.971 57.5898 193.842 56.9629 193.584 56.4121C193.338 55.8496 192.963 55.4043 192.459 55.0762C191.955 54.748 191.311 54.584 190.525 54.584C189.857 54.584 189.283 54.7305 188.803 55.0234C188.322 55.3164 187.93 55.7266 187.625 56.2539C187.332 56.7812 187.109 57.4023 186.957 58.1172C186.816 58.8203 186.746 59.5938 186.746 60.4375V61.1406C186.746 61.9023 186.852 62.6055 187.062 63.25C187.285 63.8945 187.596 64.4512 187.994 64.9199C188.404 65.3887 188.896 65.752 189.471 66.0098C190.057 66.2676 190.719 66.3965 191.457 66.3965C192.371 66.3965 193.221 66.2207 194.006 65.8691C194.803 65.5059 195.488 64.9609 196.062 64.2344L198.523 66.9062C198.125 67.4805 197.58 68.0312 196.889 68.5586C196.209 69.0859 195.389 69.5195 194.428 69.8594C193.467 70.1875 192.371 70.3516 191.141 70.3516Z" fill="#00A651"/>
<path d="M207.26 65.0781L211.215 50.9805H214.432L213.395 56.5176L209.439 70H206.75L207.26 65.0781ZM205.256 50.9805L208.086 65.0605L208.35 70H205.186L200.369 50.9805H205.256ZM218.053 64.832L220.812 50.9805H225.717L220.9 70H217.754L218.053 64.832ZM214.871 50.9805L218.809 64.9727L219.354 70H216.646L212.691 56.5352L211.689 50.9805H214.871ZM238.549 64.7441C238.549 64.3809 238.443 64.0527 238.232 63.7598C238.021 63.4668 237.629 63.1973 237.055 62.9512C236.492 62.6934 235.678 62.459 234.611 62.248C233.65 62.0371 232.754 61.7734 231.922 61.457C231.102 61.1289 230.387 60.7363 229.777 60.2793C229.18 59.8223 228.711 59.2832 228.371 58.6621C228.031 58.0293 227.861 57.3086 227.861 56.5C227.861 55.7031 228.031 54.9531 228.371 54.25C228.723 53.5469 229.221 52.9258 229.865 52.3867C230.521 51.8359 231.318 51.4082 232.256 51.1035C233.205 50.7871 234.271 50.6289 235.455 50.6289C237.107 50.6289 238.525 50.8926 239.709 51.4199C240.904 51.9473 241.818 52.6738 242.451 53.5996C243.096 54.5137 243.418 55.5566 243.418 56.7285H238.355C238.355 56.2363 238.25 55.7969 238.039 55.4102C237.84 55.0117 237.523 54.7012 237.09 54.4785C236.668 54.2441 236.117 54.127 235.438 54.127C234.875 54.127 234.389 54.2266 233.979 54.4258C233.568 54.6133 233.252 54.8711 233.029 55.1992C232.818 55.5156 232.713 55.8672 232.713 56.2539C232.713 56.5469 232.771 56.8105 232.889 57.0449C233.018 57.2676 233.223 57.4727 233.504 57.6602C233.785 57.8477 234.148 58.0234 234.594 58.1875C235.051 58.3398 235.613 58.4805 236.281 58.6094C237.652 58.8906 238.877 59.2598 239.955 59.7168C241.033 60.1621 241.889 60.7715 242.521 61.5449C243.154 62.3066 243.471 63.3086 243.471 64.5508C243.471 65.3945 243.283 66.168 242.908 66.8711C242.533 67.5742 241.994 68.1895 241.291 68.7168C240.588 69.2324 239.744 69.6367 238.76 69.9297C237.787 70.2109 236.691 70.3516 235.473 70.3516C233.703 70.3516 232.203 70.0352 230.973 69.4023C229.754 68.7695 228.828 67.9668 228.195 66.9941C227.574 66.0098 227.264 65.002 227.264 63.9707H232.062C232.086 64.6621 232.262 65.2188 232.59 65.6406C232.93 66.0625 233.357 66.3672 233.873 66.5547C234.4 66.7422 234.969 66.8359 235.578 66.8359C236.234 66.8359 236.779 66.748 237.213 66.5723C237.646 66.3848 237.975 66.1387 238.197 65.834C238.432 65.5176 238.549 65.1543 238.549 64.7441Z" fill="#DF1B50"/>
<defs>
<clipPath id="clip0_352_153">
<rect width="191" height="62" fill="white"/>
</clipPath>
</defs>
</svg>
