<svg width="294" height="79" viewBox="0 0 294 79" fill="none" xmlns="http://www.w3.org/2000/svg">
<g clip-path="url(#clip0_431_195)">
<path d="M44.8735 11.9418C46.9711 14.0431 48.0176 16.9591 48.0128 20.6898V36.9917H39.3194V21.8423C39.4284 20.3247 38.9176 18.8267 37.8989 17.6766C36.7894 16.7236 35.3629 16.1981 33.886 16.1981C32.409 16.1981 30.9826 16.7236 29.8731 17.6766C29.3623 18.2434 28.9709 18.903 28.721 19.6178C28.4712 20.3326 28.3679 21.0885 28.4171 21.8423V36.9917H19.6881V21.8423C19.7363 21.088 19.6319 20.3318 19.3809 19.617C19.1298 18.9022 18.737 18.2428 18.225 17.6766C17.1155 16.7236 15.6891 16.1981 14.2121 16.1981C12.7352 16.1981 11.3087 16.7236 10.1992 17.6766C9.18048 18.8267 8.66968 20.3247 8.77872 21.8423V36.9917H-0.0141602V9.09516H8.729V12.5666C9.64151 11.3815 10.8329 10.4288 12.2021 9.78945C13.7205 9.09107 15.3824 8.74194 17.0602 8.76885C19.0636 8.73473 21.043 9.19817 22.8132 10.1158C24.4857 11.0011 25.8617 12.339 26.7764 13.9691C27.7894 12.415 29.1771 11.1276 30.8177 10.2199C32.5085 9.25395 34.4349 8.7526 36.3932 8.76885C39.9491 8.80125 42.7759 9.85888 44.8735 11.9418Z" fill="#DF1B50"/>
<path d="M81.7141 25.0916H61.9266C61.9525 26.5815 62.5657 28.0041 63.6383 29.0629C64.6401 29.9831 65.9715 30.4818 67.3458 30.4515C68.2968 30.5197 69.2459 30.2971 70.0617 29.8144C70.8774 29.3317 71.5193 28.6129 71.8985 27.7577H81.2027C80.735 29.5742 79.8537 31.2639 78.6245 32.701C77.3578 34.1942 75.7562 35.382 73.944 36.1724C71.963 37.0273 69.8164 37.4536 67.6512 37.4222C65.0513 37.4683 62.4823 36.8661 60.1865 35.6726C58.0252 34.5221 56.2496 32.7864 55.0727 30.6737C53.8047 28.3257 53.1785 25.6974 53.2545 23.0434C53.1916 20.4004 53.8147 17.7849 55.0656 15.441C56.2285 13.3252 57.9985 11.5877 60.1581 10.4421C62.4626 9.30008 65.0084 8.70091 67.592 8.69247C70.1757 8.68403 72.7256 9.26656 75.0378 10.3935C77.1616 11.5036 78.9108 13.1917 80.0735 15.2535C81.3257 17.5047 81.9526 20.0373 81.8917 22.5991C81.8832 23.4326 81.8239 24.265 81.7141 25.0916ZM72.9212 20.3427C72.9455 19.689 72.8203 19.0382 72.555 18.4377C72.2896 17.8372 71.8906 17.3021 71.3871 16.8712C70.3178 15.9881 68.9508 15.5254 67.5518 15.5729C66.2012 15.5323 64.8822 15.9769 63.8443 16.8226C62.7936 17.7382 62.1279 19.0025 61.9763 20.3704L72.9212 20.3427Z" fill="#DF1B50"/>
<path d="M151.517 24.9943C148.987 24.975 146.529 25.8225 144.571 27.3896C143.103 28.6463 141.243 29.3804 139.294 29.4725C137.791 29.4716 136.31 29.1268 134.968 28.4658C134.133 28.0129 133.384 27.4235 132.752 26.7231C131.076 24.8717 130.241 22.4209 130.245 19.3706C130.25 16.3204 131.086 13.8718 132.752 12.025C133.385 11.3208 134.137 10.7288 134.976 10.2754C136.314 9.61418 137.794 9.27161 139.294 9.27564C141.27 9.37435 143.153 10.1314 144.628 11.421C146.405 12.9219 148.671 13.7562 151.02 13.7746H151.347C151.946 13.7735 152.534 13.6157 153.05 13.3175C153.566 13.0193 153.991 12.5916 154.281 12.0788C154.571 11.5659 154.715 10.9866 154.699 10.401C154.682 9.81529 154.506 9.24457 154.188 8.74798C153.16 7.21005 151.859 5.86493 150.345 4.77664C147.166 2.53284 143.32 1.37396 139.4 1.47877C136.14 1.4247 132.922 2.20753 130.068 3.74911C127.367 5.23485 125.151 7.43722 123.675 10.1018C122.163 12.9641 121.374 16.1387 121.374 19.3602C121.374 22.5816 122.163 25.7563 123.675 28.6185C125.156 31.2722 127.371 33.4644 130.068 34.9435L130.33 35.0823V45.6147C130.33 47.515 129.558 49.3375 128.184 50.6812C126.809 52.0249 124.945 52.7798 123.001 52.7798C121.057 52.7798 119.192 52.0249 117.818 50.6812C116.443 49.3375 115.671 47.515 115.671 45.6147V4.26983C115.625 3.16627 115.145 2.12269 114.33 1.35762C113.515 0.592542 112.429 0.165283 111.299 0.165283C110.17 0.165283 109.084 0.592542 108.269 1.35762C107.454 2.12269 106.973 3.16627 106.928 4.26983V12.9415C106.006 11.6144 104.745 10.5468 103.27 9.84496C101.673 9.06856 99.911 8.67357 98.1278 8.69244C95.8699 8.66672 93.6516 9.27387 91.7356 10.442C89.7799 11.6631 88.2128 13.3947 87.2113 15.4409C86.1158 17.8177 85.5493 20.3948 85.5493 23.0017C85.5493 25.6086 86.1158 28.1858 87.2113 30.5625C88.2113 32.6245 89.7776 34.3744 91.7356 35.617C93.647 36.7975 95.867 37.4124 98.1278 37.3874C99.9693 37.4298 101.792 37.0167 103.426 36.1863C104.87 35.4545 106.081 34.3499 106.928 32.9926V46.309C106.928 50.476 108.621 54.4724 111.635 57.4189C114.65 60.3654 118.738 62.0208 123.001 62.0208C127.264 62.0208 131.352 60.3654 134.366 57.4189C137.38 54.4724 139.074 50.476 139.074 46.309V37.2833H139.4C143.316 37.3849 147.159 36.2343 150.345 34.0062C151.908 32.889 153.245 31.4976 154.287 29.903C154.616 29.4065 154.791 28.8279 154.791 28.2367C154.796 27.8131 154.715 27.3928 154.553 27.0001C154.39 26.6074 154.15 26.25 153.846 25.9485C153.541 25.6471 153.179 25.4076 152.779 25.2438C152.379 25.08 151.951 24.9952 151.517 24.9943ZM105.102 28.0909C104.534 28.6785 103.848 29.1466 103.088 29.4665C102.328 29.7864 101.509 29.9514 100.681 29.9514C99.8535 29.9514 99.0346 29.7864 98.2744 29.4665C97.5142 29.1466 96.8287 28.6785 96.2599 28.0909C94.9931 26.7023 94.3395 24.8804 94.4416 23.0226C94.3874 22.1086 94.5202 21.1932 94.8324 20.3301C95.1447 19.4669 95.6299 18.6734 96.2599 17.9959C96.8324 17.4144 97.5191 16.9519 98.2788 16.6359C99.0385 16.32 99.8556 16.1571 100.681 16.1571C101.507 16.1571 102.324 16.32 103.084 16.6359C103.843 16.9519 104.53 17.4144 105.102 17.9959C106.28 19.4266 106.921 21.2074 106.921 23.0434C106.921 24.8793 106.28 26.6602 105.102 28.0909Z" fill="#00A651"/>
<path d="M162.54 15.441C163.54 13.3933 165.107 11.6612 167.065 10.4421C168.981 9.27392 171.199 8.66678 173.457 8.6925C175.296 8.65424 177.115 9.06718 178.748 9.89361C180.183 10.6186 181.393 11.7072 182.25 13.0457V9.09518H190.993V36.9917H182.25V33.0412C181.362 34.3703 180.139 35.4535 178.699 36.1863C177.066 37.0159 175.246 37.429 173.407 37.3875C171.162 37.4086 168.96 36.7937 167.065 35.617C165.105 34.3764 163.538 32.626 162.54 30.5626C161.445 28.1858 160.878 25.6087 160.878 23.0018C160.878 20.3949 161.445 17.8178 162.54 15.441ZM180.439 17.996C179.866 17.4143 179.178 16.9516 178.418 16.6356C177.658 16.3195 176.84 16.1567 176.014 16.1567C175.188 16.1567 174.37 16.3195 173.61 16.6356C172.849 16.9516 172.162 17.4143 171.589 17.996C170.962 18.6754 170.479 19.4692 170.167 20.3319C169.855 21.1945 169.72 22.109 169.771 23.0226C169.673 24.8799 170.326 26.7004 171.589 28.0909C172.158 28.6788 172.845 29.147 173.605 29.467C174.366 29.787 175.186 29.952 176.014 29.952C176.842 29.952 177.662 29.787 178.422 29.467C179.183 29.147 179.869 28.6788 180.439 28.0909C181.611 26.6581 182.249 24.8781 182.249 23.0434C182.249 21.2088 181.611 19.4288 180.439 17.996Z" fill="#DF1B50"/>
<path d="M94.1292 33.9438L94.2499 34.2424L94.1292 33.9438Z" fill="#100E0E"/>
</g>
<path d="M174.354 54.8301V58.9434H160.994V54.8301H174.354ZM162.559 44.4062V70H157.285V44.4062H162.559ZM178.115 44.4062V70H172.859V44.4062H178.115ZM181.578 60.6836V60.3145C181.578 58.9199 181.777 57.6367 182.176 56.4648C182.574 55.2812 183.154 54.2559 183.916 53.3887C184.678 52.5215 185.615 51.8477 186.729 51.3672C187.842 50.875 189.119 50.6289 190.561 50.6289C192.002 50.6289 193.285 50.875 194.41 51.3672C195.535 51.8477 196.479 52.5215 197.24 53.3887C198.014 54.2559 198.6 55.2812 198.998 56.4648C199.396 57.6367 199.596 58.9199 199.596 60.3145V60.6836C199.596 62.0664 199.396 63.3496 198.998 64.5332C198.6 65.7051 198.014 66.7305 197.24 67.6094C196.479 68.4766 195.541 69.1504 194.428 69.6309C193.314 70.1113 192.037 70.3516 190.596 70.3516C189.154 70.3516 187.871 70.1113 186.746 69.6309C185.633 69.1504 184.689 68.4766 183.916 67.6094C183.154 66.7305 182.574 65.7051 182.176 64.5332C181.777 63.3496 181.578 62.0664 181.578 60.6836ZM186.641 60.3145V60.6836C186.641 61.4805 186.711 62.2246 186.852 62.916C186.992 63.6074 187.215 64.2168 187.52 64.7441C187.836 65.2598 188.246 65.6641 188.75 65.957C189.254 66.25 189.869 66.3965 190.596 66.3965C191.299 66.3965 191.902 66.25 192.406 65.957C192.91 65.6641 193.314 65.2598 193.619 64.7441C193.924 64.2168 194.146 63.6074 194.287 62.916C194.439 62.2246 194.516 61.4805 194.516 60.6836V60.3145C194.516 59.541 194.439 58.8145 194.287 58.1348C194.146 57.4434 193.918 56.834 193.602 56.3066C193.297 55.7676 192.893 55.3457 192.389 55.041C191.885 54.7363 191.275 54.584 190.561 54.584C189.846 54.584 189.236 54.7363 188.732 55.041C188.24 55.3457 187.836 55.7676 187.52 56.3066C187.215 56.834 186.992 57.4434 186.852 58.1348C186.711 58.8145 186.641 59.541 186.641 60.3145ZM212.99 64.7441C212.99 64.3809 212.885 64.0527 212.674 63.7598C212.463 63.4668 212.07 63.1973 211.496 62.9512C210.934 62.6934 210.119 62.459 209.053 62.248C208.092 62.0371 207.195 61.7734 206.363 61.457C205.543 61.1289 204.828 60.7363 204.219 60.2793C203.621 59.8223 203.152 59.2832 202.812 58.6621C202.473 58.0293 202.303 57.3086 202.303 56.5C202.303 55.7031 202.473 54.9531 202.812 54.25C203.164 53.5469 203.662 52.9258 204.307 52.3867C204.963 51.8359 205.76 51.4082 206.697 51.1035C207.646 50.7871 208.713 50.6289 209.896 50.6289C211.549 50.6289 212.967 50.8926 214.15 51.4199C215.346 51.9473 216.26 52.6738 216.893 53.5996C217.537 54.5137 217.859 55.5566 217.859 56.7285H212.797C212.797 56.2363 212.691 55.7969 212.48 55.4102C212.281 55.0117 211.965 54.7012 211.531 54.4785C211.109 54.2441 210.559 54.127 209.879 54.127C209.316 54.127 208.83 54.2266 208.42 54.4258C208.01 54.6133 207.693 54.8711 207.471 55.1992C207.26 55.5156 207.154 55.8672 207.154 56.2539C207.154 56.5469 207.213 56.8105 207.33 57.0449C207.459 57.2676 207.664 57.4727 207.945 57.6602C208.227 57.8477 208.59 58.0234 209.035 58.1875C209.492 58.3398 210.055 58.4805 210.723 58.6094C212.094 58.8906 213.318 59.2598 214.396 59.7168C215.475 60.1621 216.33 60.7715 216.963 61.5449C217.596 62.3066 217.912 63.3086 217.912 64.5508C217.912 65.3945 217.725 66.168 217.35 66.8711C216.975 67.5742 216.436 68.1895 215.732 68.7168C215.029 69.2324 214.186 69.6367 213.201 69.9297C212.229 70.2109 211.133 70.3516 209.914 70.3516C208.145 70.3516 206.645 70.0352 205.414 69.4023C204.195 68.7695 203.27 67.9668 202.637 66.9941C202.016 66.0098 201.705 65.002 201.705 63.9707H206.504C206.527 64.6621 206.703 65.2188 207.031 65.6406C207.371 66.0625 207.799 66.3672 208.314 66.5547C208.842 66.7422 209.41 66.8359 210.02 66.8359C210.676 66.8359 211.221 66.748 211.654 66.5723C212.088 66.3848 212.416 66.1387 212.639 65.834C212.873 65.5176 212.99 65.1543 212.99 64.7441Z" fill="#00A651"/>
<path d="M226.262 54.6367V77.3125H221.199V50.9805H225.893L226.262 54.6367ZM238.303 60.2793V60.6484C238.303 62.0312 238.139 63.3145 237.811 64.498C237.494 65.6816 237.025 66.7129 236.404 67.5918C235.783 68.459 235.01 69.1387 234.084 69.6309C233.17 70.1113 232.115 70.3516 230.92 70.3516C229.76 70.3516 228.752 70.1172 227.896 69.6484C227.041 69.1797 226.32 68.5234 225.734 67.6797C225.16 66.8242 224.697 65.834 224.346 64.709C223.994 63.584 223.725 62.377 223.537 61.0879V60.1211C223.725 58.7383 223.994 57.4727 224.346 56.3242C224.697 55.1641 225.16 54.1621 225.734 53.3184C226.32 52.4629 227.035 51.8008 227.879 51.332C228.734 50.8633 229.736 50.6289 230.885 50.6289C232.092 50.6289 233.152 50.8574 234.066 51.3145C234.992 51.7715 235.766 52.4277 236.387 53.2832C237.02 54.1387 237.494 55.1582 237.811 56.3418C238.139 57.5254 238.303 58.8379 238.303 60.2793ZM233.223 60.6484V60.2793C233.223 59.4707 233.152 58.7266 233.012 58.0469C232.883 57.3555 232.672 56.752 232.379 56.2363C232.098 55.7207 231.723 55.3223 231.254 55.041C230.797 54.748 230.24 54.6016 229.584 54.6016C228.893 54.6016 228.301 54.7129 227.809 54.9355C227.328 55.1582 226.936 55.4805 226.631 55.9023C226.326 56.3242 226.098 56.8281 225.945 57.4141C225.793 58 225.699 58.6621 225.664 59.4004V61.8438C225.723 62.7109 225.887 63.4902 226.156 64.1816C226.426 64.8613 226.842 65.4004 227.404 65.7988C227.967 66.1973 228.705 66.3965 229.619 66.3965C230.287 66.3965 230.85 66.25 231.307 65.957C231.764 65.6523 232.133 65.2363 232.414 64.709C232.707 64.1816 232.912 63.5723 233.029 62.8809C233.158 62.1895 233.223 61.4453 233.223 60.6484ZM246.793 50.9805V70H241.713V50.9805H246.793ZM241.396 46.0234C241.396 45.2852 241.654 44.6758 242.17 44.1953C242.686 43.7148 243.377 43.4746 244.244 43.4746C245.1 43.4746 245.785 43.7148 246.301 44.1953C246.828 44.6758 247.092 45.2852 247.092 46.0234C247.092 46.7617 246.828 47.3711 246.301 47.8516C245.785 48.332 245.1 48.5723 244.244 48.5723C243.377 48.5723 242.686 48.332 242.17 47.8516C241.654 47.3711 241.396 46.7617 241.396 46.0234ZM260.293 50.9805V54.5664H249.219V50.9805H260.293ZM251.961 46.2871H257.023V64.2695C257.023 64.8203 257.094 65.2422 257.234 65.5352C257.387 65.8281 257.609 66.0332 257.902 66.1504C258.195 66.2559 258.564 66.3086 259.01 66.3086C259.326 66.3086 259.607 66.2969 259.854 66.2734C260.111 66.2383 260.328 66.2031 260.504 66.168L260.521 69.8945C260.088 70.0352 259.619 70.1465 259.115 70.2285C258.611 70.3105 258.055 70.3516 257.445 70.3516C256.332 70.3516 255.359 70.1699 254.527 69.8066C253.707 69.4316 253.074 68.834 252.629 68.0137C252.184 67.1934 251.961 66.1152 251.961 64.7793V46.2871ZM273.441 65.7109V57.2383C273.441 56.6289 273.342 56.1074 273.143 55.6738C272.943 55.2285 272.633 54.8828 272.211 54.6367C271.801 54.3906 271.268 54.2676 270.611 54.2676C270.049 54.2676 269.562 54.3672 269.152 54.5664C268.742 54.7539 268.426 55.0293 268.203 55.3926C267.98 55.7441 267.869 56.1602 267.869 56.6406H262.807C262.807 55.832 262.994 55.0645 263.369 54.3379C263.744 53.6113 264.289 52.9727 265.004 52.4219C265.719 51.8594 266.568 51.4199 267.553 51.1035C268.549 50.7871 269.662 50.6289 270.893 50.6289C272.369 50.6289 273.682 50.875 274.83 51.3672C275.979 51.8594 276.881 52.5977 277.537 53.582C278.205 54.5664 278.539 55.7969 278.539 57.2734V65.4121C278.539 66.4551 278.604 67.3105 278.732 67.9785C278.861 68.6348 279.049 69.209 279.295 69.7012V70H274.18C273.934 69.4844 273.746 68.8398 273.617 68.0664C273.5 67.2812 273.441 66.4961 273.441 65.7109ZM274.109 58.416L274.145 61.2812H271.314C270.646 61.2812 270.066 61.3574 269.574 61.5098C269.082 61.6621 268.678 61.8789 268.361 62.1602C268.045 62.4297 267.811 62.7461 267.658 63.1094C267.518 63.4727 267.447 63.8711 267.447 64.3047C267.447 64.7383 267.547 65.1309 267.746 65.4824C267.945 65.8223 268.232 66.0918 268.607 66.291C268.982 66.4785 269.422 66.5723 269.926 66.5723C270.688 66.5723 271.35 66.4199 271.912 66.1152C272.475 65.8105 272.908 65.4355 273.213 64.9902C273.529 64.5449 273.693 64.123 273.705 63.7246L275.041 65.8691C274.854 66.3496 274.596 66.8477 274.268 67.3633C273.951 67.8789 273.547 68.3652 273.055 68.8223C272.562 69.2676 271.971 69.6367 271.279 69.9297C270.588 70.2109 269.768 70.3516 268.818 70.3516C267.611 70.3516 266.516 70.1113 265.531 69.6309C264.559 69.1387 263.785 68.4648 263.211 67.6094C262.648 66.7422 262.367 65.7578 262.367 64.6562C262.367 63.6602 262.555 62.7754 262.93 62.002C263.305 61.2285 263.855 60.5781 264.582 60.0508C265.32 59.5117 266.24 59.1074 267.342 58.8379C268.443 58.5566 269.721 58.416 271.174 58.416H274.109ZM287.785 43V70H282.705V43H287.785Z" fill="#DF1B50"/>
<defs>
<clipPath id="clip0_431_195">
<rect width="191" height="62" fill="white"/>
</clipPath>
</defs>
</svg>
