<svg width="130" height="152" viewBox="0 0 130 152" fill="none" xmlns="http://www.w3.org/2000/svg">
<g filter="url(#filter0_d_23_6)">
<rect x="8" y="4" width="114" height="136" rx="5" fill="white"/>
</g>
<circle cx="65.5" cy="47.5" r="27.5" fill="#FFB9B9"/>
<path fill-rule="evenodd" clip-rule="evenodd" d="M59.8973 38.1995C63.811 37.9161 67.7419 37.9347 71.6525 38.2551L74.0093 38.4482C75.7895 38.5941 77.2343 39.8923 77.505 41.5893L77.6537 42.5214C78.1583 45.6844 78.1111 48.9061 77.5142 52.0542C77.2196 53.6076 75.8114 54.7364 74.1682 54.7364H61.1392C60.8395 54.7364 60.5444 54.8078 60.2803 54.9441L54.6039 57.8754C54.2666 58.0496 53.8587 58.0406 53.53 57.8518C53.2013 57.6629 53 57.322 53 56.954V45.075C53 41.4787 55.8847 38.4901 59.6168 38.2198L59.8973 38.1995ZM59.8945 45.0991C58.8925 45.0991 58.0802 45.8797 58.0802 46.8425C58.0802 47.8053 58.8925 48.5859 59.8945 48.5859C60.8965 48.5859 61.7088 47.8053 61.7088 46.8425C61.7088 45.8797 60.8965 45.0991 59.8945 45.0991ZM65.7004 45.0991C64.6984 45.0991 63.886 45.8797 63.886 46.8425C63.886 47.8053 64.6984 48.5859 65.7004 48.5859C66.7024 48.5859 67.5147 47.8053 67.5147 46.8425C67.5147 45.8797 66.7024 45.0991 65.7004 45.0991ZM69.6919 46.8425C69.6919 45.8797 70.5042 45.0991 71.5063 45.0991C72.5083 45.0991 73.3206 45.8797 73.3206 46.8425C73.3206 47.8053 72.5083 48.5859 71.5063 48.5859C70.5042 48.5859 69.6919 47.8053 69.6919 46.8425Z" fill="white"/>
<path d="M35.7216 111.108C34.8896 111.108 34.1776 110.932 33.5856 110.58C32.9936 110.228 32.5376 109.728 32.2176 109.08C31.9056 108.432 31.7496 107.66 31.7496 106.764C31.7496 106.092 31.8376 105.492 32.0136 104.964C32.1976 104.428 32.4576 103.976 32.7936 103.608C33.1376 103.232 33.5576 102.944 34.0536 102.744C34.5496 102.536 35.1056 102.432 35.7216 102.432C36.2176 102.432 36.6896 102.504 37.1376 102.648C37.5856 102.784 37.9736 102.988 38.3016 103.26C38.4056 103.34 38.4736 103.432 38.5056 103.536C38.5456 103.632 38.5496 103.728 38.5176 103.824C38.4936 103.912 38.4456 103.988 38.3736 104.052C38.3096 104.108 38.2296 104.136 38.1336 104.136C38.0376 104.136 37.9296 104.096 37.8096 104.016C37.5216 103.784 37.2056 103.612 36.8616 103.5C36.5176 103.388 36.1456 103.332 35.7456 103.332C35.1136 103.332 34.5776 103.468 34.1376 103.74C33.6976 104.004 33.3656 104.392 33.1416 104.904C32.9176 105.416 32.8056 106.036 32.8056 106.764C32.8056 107.492 32.9176 108.116 33.1416 108.636C33.3656 109.148 33.6976 109.54 34.1376 109.812C34.5776 110.076 35.1136 110.208 35.7456 110.208C36.1376 110.208 36.5096 110.152 36.8616 110.04C37.2136 109.92 37.5376 109.744 37.8336 109.512C37.9536 109.432 38.0616 109.396 38.1576 109.404C38.2536 109.404 38.3336 109.432 38.3976 109.488C38.4616 109.544 38.5056 109.616 38.5296 109.704C38.5616 109.792 38.5616 109.884 38.5296 109.98C38.5056 110.076 38.4456 110.16 38.3496 110.232C38.0136 110.52 37.6176 110.74 37.1616 110.892C36.7136 111.036 36.2336 111.108 35.7216 111.108ZM40.4838 111.084C40.3238 111.084 40.2038 111.04 40.1238 110.952C40.0438 110.864 40.0038 110.74 40.0038 110.58V102.948C40.0038 102.788 40.0438 102.668 40.1238 102.588C40.2038 102.5 40.3238 102.456 40.4838 102.456C40.6358 102.456 40.7558 102.5 40.8438 102.588C40.9318 102.668 40.9758 102.788 40.9758 102.948V106.464H40.8198C40.9878 106 41.2598 105.652 41.6358 105.42C42.0198 105.18 42.4598 105.06 42.9558 105.06C43.4198 105.06 43.8038 105.144 44.1078 105.312C44.4198 105.48 44.6518 105.736 44.8038 106.08C44.9558 106.416 45.0318 106.844 45.0318 107.364V110.58C45.0318 110.74 44.9878 110.864 44.8998 110.952C44.8198 111.04 44.7038 111.084 44.5518 111.084C44.3918 111.084 44.2678 111.04 44.1798 110.952C44.0998 110.864 44.0598 110.74 44.0598 110.58V107.424C44.0598 106.88 43.9518 106.484 43.7358 106.236C43.5278 105.98 43.1918 105.852 42.7278 105.852C42.1918 105.852 41.7638 106.02 41.4438 106.356C41.1318 106.684 40.9758 107.124 40.9758 107.676V110.58C40.9758 110.916 40.8118 111.084 40.4838 111.084ZM48.6601 111.108C48.2601 111.108 47.9001 111.032 47.5801 110.88C47.2681 110.72 47.0201 110.504 46.8361 110.232C46.6521 109.96 46.5601 109.656 46.5601 109.32C46.5601 108.888 46.6681 108.548 46.8841 108.3C47.1081 108.052 47.4721 107.876 47.9761 107.772C48.4881 107.668 49.1841 107.616 50.0641 107.616H50.6041V108.252H50.0761C49.4281 108.252 48.9161 108.284 48.5401 108.348C48.1721 108.404 47.9121 108.504 47.7601 108.648C47.6161 108.792 47.5441 108.996 47.5441 109.26C47.5441 109.588 47.6561 109.856 47.8801 110.064C48.1121 110.272 48.4241 110.376 48.8161 110.376C49.1361 110.376 49.4161 110.3 49.6561 110.148C49.9041 109.996 50.0961 109.788 50.2321 109.524C50.3761 109.26 50.4481 108.956 50.4481 108.612V107.244C50.4481 106.748 50.3481 106.392 50.1481 106.176C49.9481 105.952 49.6201 105.84 49.1641 105.84C48.8841 105.84 48.6041 105.876 48.3241 105.948C48.0441 106.02 47.7481 106.136 47.4361 106.296C47.3241 106.352 47.2281 106.372 47.1481 106.356C47.0681 106.332 47.0041 106.288 46.9561 106.224C46.9081 106.16 46.8801 106.088 46.8721 106.008C46.8641 105.92 46.8801 105.836 46.9201 105.756C46.9681 105.676 47.0401 105.612 47.1361 105.564C47.4881 105.388 47.8361 105.26 48.1801 105.18C48.5241 105.1 48.8521 105.06 49.1641 105.06C49.6681 105.06 50.0841 105.144 50.4121 105.312C50.7401 105.472 50.9841 105.72 51.1441 106.056C51.3041 106.384 51.3841 106.808 51.3841 107.328V110.58C51.3841 110.74 51.3441 110.864 51.2641 110.952C51.1921 111.04 51.0841 111.084 50.9401 111.084C50.7881 111.084 50.6721 111.04 50.5921 110.952C50.5121 110.864 50.4721 110.74 50.4721 110.58V109.644H50.5801C50.5161 109.948 50.3921 110.208 50.2081 110.424C50.0321 110.64 49.8121 110.808 49.5481 110.928C49.2841 111.048 48.9881 111.108 48.6601 111.108ZM55.5274 111.108C55.0714 111.108 54.6874 111.028 54.3754 110.868C54.0714 110.7 53.8434 110.46 53.6914 110.148C53.5394 109.828 53.4634 109.44 53.4634 108.984V105.924H52.6594C52.5234 105.924 52.4194 105.892 52.3474 105.828C52.2754 105.756 52.2394 105.66 52.2394 105.54C52.2394 105.42 52.2754 105.328 52.3474 105.264C52.4194 105.2 52.5234 105.168 52.6594 105.168H53.4634V103.788C53.4634 103.628 53.5074 103.508 53.5954 103.428C53.6834 103.34 53.8034 103.296 53.9554 103.296C54.1074 103.296 54.2234 103.34 54.3034 103.428C54.3914 103.508 54.4354 103.628 54.4354 103.788V105.168H55.9474C56.0834 105.168 56.1874 105.2 56.2594 105.264C56.3314 105.328 56.3674 105.42 56.3674 105.54C56.3674 105.66 56.3314 105.756 56.2594 105.828C56.1874 105.892 56.0834 105.924 55.9474 105.924H54.4354V108.888C54.4354 109.344 54.5314 109.692 54.7234 109.932C54.9154 110.164 55.2274 110.28 55.6594 110.28C55.8114 110.28 55.9394 110.264 56.0434 110.232C56.1554 110.2 56.2474 110.184 56.3194 110.184C56.3914 110.176 56.4514 110.2 56.4994 110.256C56.5474 110.312 56.5714 110.408 56.5714 110.544C56.5714 110.64 56.5514 110.728 56.5114 110.808C56.4794 110.888 56.4194 110.944 56.3314 110.976C56.2354 111.008 56.1074 111.036 55.9474 111.06C55.7954 111.092 55.6554 111.108 55.5274 111.108ZM62.6965 111.108C62.1765 111.108 61.7205 110.984 61.3285 110.736C60.9445 110.488 60.6445 110.14 60.4285 109.692C60.2205 109.236 60.1165 108.7 60.1165 108.084C60.1165 107.46 60.2205 106.924 60.4285 106.476C60.6445 106.02 60.9445 105.672 61.3285 105.432C61.7205 105.184 62.1765 105.06 62.6965 105.06C63.2245 105.06 63.6765 105.192 64.0525 105.456C64.4285 105.72 64.6805 106.076 64.8085 106.524H64.6765V102.948C64.6765 102.788 64.7165 102.668 64.7965 102.588C64.8845 102.5 65.0085 102.456 65.1685 102.456C65.3205 102.456 65.4365 102.5 65.5165 102.588C65.6045 102.668 65.6485 102.788 65.6485 102.948V110.58C65.6485 110.74 65.6085 110.864 65.5285 110.952C65.4485 111.04 65.3285 111.084 65.1685 111.084C65.0165 111.084 64.8965 111.04 64.8085 110.952C64.7285 110.864 64.6885 110.74 64.6885 110.58V109.44L64.8205 109.608C64.6925 110.064 64.4365 110.428 64.0525 110.7C63.6765 110.972 63.2245 111.108 62.6965 111.108ZM62.9005 110.328C63.2605 110.328 63.5765 110.24 63.8485 110.064C64.1205 109.888 64.3285 109.632 64.4725 109.296C64.6245 108.96 64.7005 108.556 64.7005 108.084C64.7005 107.356 64.5365 106.8 64.2085 106.416C63.8885 106.032 63.4525 105.84 62.9005 105.84C62.5325 105.84 62.2125 105.928 61.9405 106.104C61.6765 106.272 61.4685 106.524 61.3165 106.86C61.1725 107.188 61.1005 107.596 61.1005 108.084C61.1005 108.804 61.2645 109.36 61.5925 109.752C61.9205 110.136 62.3565 110.328 62.9005 110.328ZM70.1005 111.108C69.4845 111.108 68.9525 110.988 68.5045 110.748C68.0645 110.5 67.7205 110.152 67.4725 109.704C67.2325 109.256 67.1125 108.72 67.1125 108.096C67.1125 107.488 67.2325 106.96 67.4725 106.512C67.7125 106.056 68.0405 105.7 68.4565 105.444C68.8805 105.188 69.3685 105.06 69.9205 105.06C70.3125 105.06 70.6645 105.128 70.9765 105.264C71.2885 105.392 71.5525 105.58 71.7685 105.828C71.9925 106.076 72.1605 106.376 72.2725 106.728C72.3925 107.08 72.4525 107.476 72.4525 107.916C72.4525 108.044 72.4165 108.14 72.3445 108.204C72.2725 108.26 72.1685 108.288 72.0325 108.288H67.8565V107.652H71.8045L71.6125 107.808C71.6125 107.376 71.5485 107.012 71.4205 106.716C71.2925 106.412 71.1045 106.18 70.8565 106.02C70.6165 105.86 70.3125 105.78 69.9445 105.78C69.5365 105.78 69.1885 105.876 68.9005 106.068C68.6205 106.252 68.4085 106.512 68.2645 106.848C68.1205 107.176 68.0485 107.56 68.0485 108V108.072C68.0485 108.808 68.2245 109.368 68.5765 109.752C68.9365 110.136 69.4445 110.328 70.1005 110.328C70.3725 110.328 70.6405 110.292 70.9045 110.22C71.1765 110.148 71.4405 110.028 71.6965 109.86C71.8085 109.788 71.9085 109.756 71.9965 109.764C72.0925 109.764 72.1685 109.792 72.2245 109.848C72.2805 109.896 72.3165 109.96 72.3325 110.04C72.3565 110.112 72.3485 110.192 72.3085 110.28C72.2765 110.368 72.2085 110.444 72.1045 110.508C71.8405 110.7 71.5285 110.848 71.1685 110.952C70.8085 111.056 70.4525 111.108 70.1005 111.108ZM74.3393 111.084C74.1793 111.084 74.0593 111.04 73.9793 110.952C73.8993 110.864 73.8593 110.74 73.8593 110.58V105.576C73.8593 105.416 73.8993 105.296 73.9793 105.216C74.0593 105.128 74.1753 105.084 74.3273 105.084C74.4793 105.084 74.5953 105.128 74.6753 105.216C74.7633 105.296 74.8073 105.416 74.8073 105.576V106.608L74.6753 106.464C74.8433 106 75.1153 105.652 75.4913 105.42C75.8753 105.18 76.3153 105.06 76.8113 105.06C77.2753 105.06 77.6593 105.144 77.9633 105.312C78.2753 105.48 78.5073 105.736 78.6593 106.08C78.8113 106.416 78.8873 106.844 78.8873 107.364V110.58C78.8873 110.74 78.8433 110.864 78.7553 110.952C78.6753 111.04 78.5593 111.084 78.4073 111.084C78.2473 111.084 78.1233 111.04 78.0353 110.952C77.9553 110.864 77.9153 110.74 77.9153 110.58V107.424C77.9153 106.88 77.8073 106.484 77.5913 106.236C77.3833 105.98 77.0473 105.852 76.5833 105.852C76.0473 105.852 75.6193 106.02 75.2993 106.356C74.9873 106.684 74.8313 107.124 74.8313 107.676V110.58C74.8313 110.916 74.6673 111.084 74.3393 111.084ZM83.2596 113.268C82.8356 113.268 82.4196 113.216 82.0116 113.112C81.6116 113.016 81.2476 112.86 80.9196 112.644C80.8236 112.588 80.7596 112.52 80.7276 112.44C80.7036 112.36 80.6996 112.28 80.7156 112.2C80.7316 112.128 80.7676 112.06 80.8236 111.996C80.8796 111.94 80.9436 111.904 81.0156 111.888C81.0956 111.872 81.1756 111.884 81.2556 111.924C81.6076 112.14 81.9436 112.288 82.2636 112.368C82.5836 112.448 82.8996 112.488 83.2116 112.488C83.7796 112.488 84.2076 112.336 84.4956 112.032C84.7916 111.728 84.9396 111.288 84.9396 110.712V109.356H85.0596C84.9396 109.82 84.6836 110.188 84.2916 110.46C83.9076 110.732 83.4556 110.868 82.9356 110.868C82.3996 110.868 81.9356 110.748 81.5436 110.508C81.1516 110.26 80.8476 109.916 80.6316 109.476C80.4236 109.036 80.3196 108.528 80.3196 107.952C80.3196 107.52 80.3796 107.128 80.4996 106.776C80.6196 106.416 80.7916 106.112 81.0156 105.864C81.2476 105.608 81.5236 105.412 81.8436 105.276C82.1716 105.132 82.5356 105.06 82.9356 105.06C83.4636 105.06 83.9196 105.196 84.3036 105.468C84.6876 105.732 84.9356 106.092 85.0476 106.548L84.9276 106.692V105.576C84.9276 105.416 84.9676 105.296 85.0476 105.216C85.1356 105.128 85.2556 105.084 85.4076 105.084C85.5676 105.084 85.6876 105.128 85.7676 105.216C85.8476 105.296 85.8876 105.416 85.8876 105.576V110.58C85.8876 111.468 85.6636 112.136 85.2156 112.584C84.7756 113.04 84.1236 113.268 83.2596 113.268ZM83.1156 110.076C83.4916 110.076 83.8156 109.992 84.0876 109.824C84.3596 109.648 84.5676 109.4 84.7116 109.08C84.8636 108.76 84.9396 108.384 84.9396 107.952C84.9396 107.304 84.7756 106.792 84.4476 106.416C84.1196 106.032 83.6756 105.84 83.1156 105.84C82.7476 105.84 82.4276 105.928 82.1556 106.104C81.8836 106.272 81.6716 106.516 81.5196 106.836C81.3756 107.148 81.3036 107.52 81.3036 107.952C81.3036 108.6 81.4676 109.116 81.7956 109.5C82.1236 109.884 82.5636 110.076 83.1156 110.076ZM89.5468 111.108C89.1468 111.108 88.7868 111.032 88.4668 110.88C88.1548 110.72 87.9068 110.504 87.7228 110.232C87.5388 109.96 87.4468 109.656 87.4468 109.32C87.4468 108.888 87.5548 108.548 87.7708 108.3C87.9948 108.052 88.3588 107.876 88.8628 107.772C89.3748 107.668 90.0708 107.616 90.9508 107.616H91.4908V108.252H90.9628C90.3148 108.252 89.8028 108.284 89.4268 108.348C89.0588 108.404 88.7988 108.504 88.6468 108.648C88.5028 108.792 88.4308 108.996 88.4308 109.26C88.4308 109.588 88.5428 109.856 88.7668 110.064C88.9988 110.272 89.3108 110.376 89.7028 110.376C90.0228 110.376 90.3028 110.3 90.5428 110.148C90.7908 109.996 90.9828 109.788 91.1188 109.524C91.2628 109.26 91.3348 108.956 91.3348 108.612V107.244C91.3348 106.748 91.2348 106.392 91.0348 106.176C90.8348 105.952 90.5068 105.84 90.0508 105.84C89.7708 105.84 89.4908 105.876 89.2108 105.948C88.9308 106.02 88.6348 106.136 88.3228 106.296C88.2108 106.352 88.1148 106.372 88.0348 106.356C87.9548 106.332 87.8908 106.288 87.8428 106.224C87.7948 106.16 87.7668 106.088 87.7588 106.008C87.7508 105.92 87.7668 105.836 87.8068 105.756C87.8548 105.676 87.9268 105.612 88.0228 105.564C88.3748 105.388 88.7228 105.26 89.0668 105.18C89.4108 105.1 89.7388 105.06 90.0508 105.06C90.5548 105.06 90.9708 105.144 91.2988 105.312C91.6268 105.472 91.8708 105.72 92.0308 106.056C92.1908 106.384 92.2708 106.808 92.2708 107.328V110.58C92.2708 110.74 92.2308 110.864 92.1508 110.952C92.0788 111.04 91.9708 111.084 91.8268 111.084C91.6748 111.084 91.5588 111.04 91.4788 110.952C91.3988 110.864 91.3588 110.74 91.3588 110.58V109.644H91.4668C91.4028 109.948 91.2788 110.208 91.0948 110.424C90.9188 110.64 90.6988 110.808 90.4348 110.928C90.1708 111.048 89.8748 111.108 89.5468 111.108ZM94.5541 111.084C94.3941 111.084 94.2741 111.04 94.1941 110.952C94.1141 110.864 94.0741 110.74 94.0741 110.58V105.576C94.0741 105.416 94.1141 105.296 94.1941 105.216C94.2741 105.128 94.3901 105.084 94.5421 105.084C94.6941 105.084 94.8101 105.128 94.8901 105.216C94.9781 105.296 95.0221 105.416 95.0221 105.576V106.608L94.8901 106.464C95.0581 106 95.3301 105.652 95.7061 105.42C96.0901 105.18 96.5301 105.06 97.0261 105.06C97.4901 105.06 97.8741 105.144 98.1781 105.312C98.4901 105.48 98.7221 105.736 98.8741 106.08C99.0261 106.416 99.1021 106.844 99.1021 107.364V110.58C99.1021 110.74 99.0581 110.864 98.9701 110.952C98.8901 111.04 98.7741 111.084 98.6221 111.084C98.4621 111.084 98.3381 111.04 98.2501 110.952C98.1701 110.864 98.1301 110.74 98.1301 110.58V107.424C98.1301 106.88 98.0221 106.484 97.8061 106.236C97.5981 105.98 97.2621 105.852 96.7981 105.852C96.2621 105.852 95.8341 106.02 95.5141 106.356C95.2021 106.684 95.0461 107.124 95.0461 107.676V110.58C95.0461 110.916 94.8821 111.084 94.5541 111.084ZM51.4582 127.108C50.9382 127.108 50.4822 126.984 50.0902 126.736C49.7062 126.488 49.4062 126.14 49.1902 125.692C48.9822 125.236 48.8782 124.7 48.8782 124.084C48.8782 123.46 48.9822 122.924 49.1902 122.476C49.4062 122.02 49.7062 121.672 50.0902 121.432C50.4822 121.184 50.9382 121.06 51.4582 121.06C51.9862 121.06 52.4382 121.192 52.8142 121.456C53.1902 121.72 53.4422 122.076 53.5702 122.524H53.4382V118.948C53.4382 118.788 53.4782 118.668 53.5582 118.588C53.6462 118.5 53.7702 118.456 53.9302 118.456C54.0822 118.456 54.1982 118.5 54.2782 118.588C54.3662 118.668 54.4102 118.788 54.4102 118.948V126.58C54.4102 126.74 54.3702 126.864 54.2902 126.952C54.2102 127.04 54.0902 127.084 53.9302 127.084C53.7782 127.084 53.6582 127.04 53.5702 126.952C53.4902 126.864 53.4502 126.74 53.4502 126.58V125.44L53.5822 125.608C53.4542 126.064 53.1982 126.428 52.8142 126.7C52.4382 126.972 51.9862 127.108 51.4582 127.108ZM51.6622 126.328C52.0222 126.328 52.3382 126.24 52.6102 126.064C52.8822 125.888 53.0902 125.632 53.2342 125.296C53.3862 124.96 53.4622 124.556 53.4622 124.084C53.4622 123.356 53.2982 122.8 52.9702 122.416C52.6502 122.032 52.2142 121.84 51.6622 121.84C51.2942 121.84 50.9742 121.928 50.7022 122.104C50.4382 122.272 50.2302 122.524 50.0782 122.86C49.9342 123.188 49.8622 123.596 49.8622 124.084C49.8622 124.804 50.0262 125.36 50.3542 125.752C50.6822 126.136 51.1182 126.328 51.6622 126.328ZM58.6583 127.108C58.0903 127.108 57.5983 126.984 57.1823 126.736C56.7663 126.488 56.4423 126.14 56.2103 125.692C55.9863 125.236 55.8743 124.7 55.8743 124.084C55.8743 123.62 55.9383 123.204 56.0663 122.836C56.1943 122.46 56.3823 122.14 56.6303 121.876C56.8783 121.612 57.1703 121.412 57.5063 121.276C57.8503 121.132 58.2343 121.06 58.6583 121.06C59.2263 121.06 59.7183 121.184 60.1343 121.432C60.5503 121.68 60.8703 122.032 61.0943 122.488C61.3263 122.936 61.4423 123.468 61.4423 124.084C61.4423 124.548 61.3783 124.964 61.2503 125.332C61.1223 125.7 60.9343 126.02 60.6863 126.292C60.4383 126.556 60.1423 126.76 59.7983 126.904C59.4623 127.04 59.0823 127.108 58.6583 127.108ZM58.6583 126.328C59.0183 126.328 59.3343 126.24 59.6063 126.064C59.8783 125.888 60.0863 125.632 60.2303 125.296C60.3823 124.96 60.4583 124.556 60.4583 124.084C60.4583 123.356 60.2943 122.8 59.9663 122.416C59.6463 122.032 59.2103 121.84 58.6583 121.84C58.2903 121.84 57.9703 121.928 57.6983 122.104C57.4343 122.272 57.2263 122.524 57.0743 122.86C56.9303 123.188 56.8583 123.596 56.8583 124.084C56.8583 124.804 57.0223 125.36 57.3503 125.752C57.6783 126.136 58.1143 126.328 58.6583 126.328ZM63.3822 127.084C63.2222 127.084 63.1022 127.04 63.0222 126.952C62.9422 126.864 62.9022 126.74 62.9022 126.58V118.948C62.9022 118.788 62.9422 118.668 63.0222 118.588C63.1022 118.5 63.2222 118.456 63.3822 118.456C63.5342 118.456 63.6542 118.5 63.7422 118.588C63.8302 118.668 63.8742 118.788 63.8742 118.948V123.76H63.8982L66.3582 121.408C66.4702 121.304 66.5662 121.224 66.6462 121.168C66.7342 121.112 66.8502 121.084 66.9942 121.084C67.1222 121.084 67.2222 121.12 67.2942 121.192C67.3662 121.256 67.3982 121.34 67.3902 121.444C67.3902 121.54 67.3422 121.644 67.2462 121.756L64.6302 124.24V123.712L67.4742 126.388C67.5862 126.5 67.6422 126.608 67.6422 126.712C67.6422 126.816 67.6022 126.904 67.5222 126.976C67.4502 127.048 67.3542 127.084 67.2342 127.084C67.0902 127.084 66.9742 127.056 66.8862 127C66.7982 126.936 66.6902 126.844 66.5622 126.724L63.8982 124.264H63.8742V126.58C63.8742 126.916 63.7102 127.084 63.3822 127.084ZM71.1016 127.108C70.6456 127.108 70.2616 127.028 69.9496 126.868C69.6456 126.7 69.4176 126.46 69.2656 126.148C69.1136 125.828 69.0376 125.44 69.0376 124.984V121.924H68.2336C68.0976 121.924 67.9936 121.892 67.9216 121.828C67.8496 121.756 67.8136 121.66 67.8136 121.54C67.8136 121.42 67.8496 121.328 67.9216 121.264C67.9936 121.2 68.0976 121.168 68.2336 121.168H69.0376V119.788C69.0376 119.628 69.0816 119.508 69.1696 119.428C69.2576 119.34 69.3776 119.296 69.5296 119.296C69.6816 119.296 69.7976 119.34 69.8776 119.428C69.9656 119.508 70.0096 119.628 70.0096 119.788V121.168H71.5216C71.6576 121.168 71.7616 121.2 71.8336 121.264C71.9056 121.328 71.9416 121.42 71.9416 121.54C71.9416 121.66 71.9056 121.756 71.8336 121.828C71.7616 121.892 71.6576 121.924 71.5216 121.924H70.0096V124.888C70.0096 125.344 70.1056 125.692 70.2976 125.932C70.4896 126.164 70.8016 126.28 71.2336 126.28C71.3856 126.28 71.5136 126.264 71.6176 126.232C71.7296 126.2 71.8216 126.184 71.8936 126.184C71.9656 126.176 72.0256 126.2 72.0736 126.256C72.1216 126.312 72.1456 126.408 72.1456 126.544C72.1456 126.64 72.1256 126.728 72.0856 126.808C72.0536 126.888 71.9936 126.944 71.9056 126.976C71.8096 127.008 71.6816 127.036 71.5216 127.06C71.3696 127.092 71.2296 127.108 71.1016 127.108ZM75.5263 127.108C74.9103 127.108 74.3783 126.988 73.9303 126.748C73.4903 126.5 73.1463 126.152 72.8983 125.704C72.6583 125.256 72.5383 124.72 72.5383 124.096C72.5383 123.488 72.6583 122.96 72.8983 122.512C73.1383 122.056 73.4663 121.7 73.8823 121.444C74.3063 121.188 74.7943 121.06 75.3463 121.06C75.7383 121.06 76.0903 121.128 76.4023 121.264C76.7143 121.392 76.9783 121.58 77.1943 121.828C77.4183 122.076 77.5863 122.376 77.6983 122.728C77.8183 123.08 77.8783 123.476 77.8783 123.916C77.8783 124.044 77.8423 124.14 77.7703 124.204C77.6983 124.26 77.5943 124.288 77.4583 124.288H73.2823V123.652H77.2303L77.0383 123.808C77.0383 123.376 76.9743 123.012 76.8463 122.716C76.7183 122.412 76.5303 122.18 76.2823 122.02C76.0423 121.86 75.7383 121.78 75.3703 121.78C74.9623 121.78 74.6143 121.876 74.3263 122.068C74.0463 122.252 73.8343 122.512 73.6903 122.848C73.5463 123.176 73.4743 123.56 73.4743 124V124.072C73.4743 124.808 73.6503 125.368 74.0023 125.752C74.3623 126.136 74.8703 126.328 75.5263 126.328C75.7983 126.328 76.0663 126.292 76.3303 126.22C76.6023 126.148 76.8663 126.028 77.1223 125.86C77.2343 125.788 77.3343 125.756 77.4223 125.764C77.5183 125.764 77.5943 125.792 77.6503 125.848C77.7063 125.896 77.7423 125.96 77.7583 126.04C77.7823 126.112 77.7743 126.192 77.7343 126.28C77.7023 126.368 77.6343 126.444 77.5303 126.508C77.2663 126.7 76.9543 126.848 76.5943 126.952C76.2343 127.056 75.8783 127.108 75.5263 127.108ZM79.777 127.084C79.617 127.084 79.493 127.04 79.405 126.952C79.325 126.864 79.285 126.74 79.285 126.58V121.576C79.285 121.416 79.325 121.296 79.405 121.216C79.485 121.128 79.601 121.084 79.753 121.084C79.905 121.084 80.021 121.128 80.101 121.216C80.189 121.296 80.233 121.416 80.233 121.576V122.548H80.113C80.241 122.076 80.485 121.712 80.845 121.456C81.205 121.2 81.649 121.064 82.177 121.048C82.297 121.04 82.393 121.068 82.465 121.132C82.537 121.188 82.577 121.288 82.585 121.432C82.593 121.568 82.561 121.676 82.489 121.756C82.417 121.836 82.305 121.884 82.153 121.9L81.961 121.924C81.417 121.972 80.997 122.148 80.701 122.452C80.413 122.748 80.269 123.156 80.269 123.676V126.58C80.269 126.74 80.225 126.864 80.137 126.952C80.057 127.04 79.937 127.084 79.777 127.084Z" fill="black"/>
<defs>
<filter id="filter0_d_23_6" x="0" y="0" width="130" height="152" filterUnits="userSpaceOnUse" color-interpolation-filters="sRGB">
<feFlood flood-opacity="0" result="BackgroundImageFix"/>
<feColorMatrix in="SourceAlpha" type="matrix" values="0 0 0 0 0 0 0 0 0 0 0 0 0 0 0 0 0 0 127 0" result="hardAlpha"/>
<feMorphology radius="3" operator="erode" in="SourceAlpha" result="effect1_dropShadow_23_6"/>
<feOffset dy="4"/>
<feGaussianBlur stdDeviation="5.5"/>
<feComposite in2="hardAlpha" operator="out"/>
<feColorMatrix type="matrix" values="0 0 0 0 0 0 0 0 0 0 0 0 0 0 0 0 0 0 0.25 0"/>
<feBlend mode="normal" in2="BackgroundImageFix" result="effect1_dropShadow_23_6"/>
<feBlend mode="normal" in="SourceGraphic" in2="effect1_dropShadow_23_6" result="shape"/>
</filter>
</defs>
</svg>
