<svg width="205" height="67" viewBox="0 0 205 67" fill="none" xmlns="http://www.w3.org/2000/svg">
<g clip-path="url(#clip0_72_65)">
<path d="M48.1626 12.9048C50.414 15.1757 51.5371 18.3268 51.532 22.3583V39.9749H42.2014V23.6038C42.3184 21.9638 41.7702 20.345 40.6768 19.1021C39.4859 18.0723 37.9549 17.5044 36.3697 17.5044C34.7845 17.5044 33.2535 18.0723 32.0627 19.1021C31.5145 19.7146 31.0943 20.4275 30.8262 21.1999C30.558 21.9723 30.4472 22.7892 30.4999 23.6038V39.9749H21.1312V23.6038C21.1829 22.7887 21.0709 21.9715 20.8014 21.1991C20.5319 20.4266 20.1104 19.7141 19.5608 19.1021C18.37 18.0723 16.839 17.5044 15.2538 17.5044C13.6686 17.5044 12.1376 18.0723 10.9467 19.1021C9.85334 20.345 9.30509 21.9638 9.42212 23.6038V39.9749H-0.0152588V9.82865H9.36876V13.5801C10.3482 12.2993 11.6268 11.2699 13.0964 10.5789C14.7261 9.82423 16.5098 9.44695 18.3106 9.47602C20.4608 9.43915 22.5854 9.93997 24.4853 10.9316C26.2804 11.8883 27.7573 13.3341 28.739 15.0956C29.8263 13.4162 31.3157 12.025 33.0766 11.0441C34.8913 10.0002 36.9588 9.45846 39.0607 9.47602C42.8773 9.51103 45.9113 10.654 48.1626 12.9048Z" fill="#DF1B50"/>
<path d="M87.7036 27.1151H66.4657C66.4935 28.7252 67.1516 30.2626 68.3028 31.4067C69.378 32.4011 70.8071 32.94 72.2821 32.9073C73.3028 32.981 74.3215 32.7404 75.197 32.2188C76.0725 31.6972 76.7615 30.9204 77.1685 29.9962H87.1547C86.6527 31.9592 85.7067 33.7853 84.3875 35.3382C83.0279 36.9518 81.309 38.2354 79.3639 39.0896C77.2377 40.0134 74.9338 40.4741 72.6099 40.4401C69.8194 40.4899 67.0621 39.8392 64.598 38.5494C62.2783 37.3062 60.3725 35.4305 59.1094 33.1474C57.7485 30.6101 57.0763 27.7698 57.1579 24.9018C57.0904 22.0456 57.7591 19.2192 59.1018 16.6862C60.3499 14.3998 62.2497 12.5222 64.5675 11.2842C67.0409 10.0501 69.7733 9.40262 72.5464 9.3935C75.3194 9.38438 78.0562 10.0139 80.5379 11.2317C82.8174 12.4313 84.6947 14.2556 85.9427 16.4837C87.2867 18.9164 87.9595 21.6533 87.8942 24.4216C87.8851 25.3224 87.8215 26.2218 87.7036 27.1151V27.1151ZM78.2662 21.9832C78.2922 21.2768 78.1579 20.5735 77.8731 19.9246C77.5882 19.2757 77.16 18.6974 76.6196 18.2318C75.4719 17.2775 74.0047 16.7774 72.5032 16.8288C71.0536 16.785 69.6379 17.2654 68.5239 18.1793C67.3962 19.1687 66.6817 20.535 66.519 22.0132L78.2662 21.9832Z" fill="#DF1B50"/>
<path d="M162.623 27.0101C159.907 26.9892 157.27 27.905 155.168 29.5985C153.592 30.9566 151.596 31.7499 149.504 31.8494C147.891 31.8484 146.302 31.4758 144.862 30.7615C143.965 30.2721 143.161 29.6351 142.483 28.8783C140.684 26.8775 139.787 24.2291 139.792 20.9328C139.797 17.6366 140.694 14.9906 142.483 12.9948C143.162 12.2338 143.969 11.5941 144.869 11.1042C146.306 10.3896 147.894 10.0194 149.504 10.0237C151.625 10.1304 153.646 10.9485 155.229 12.3421C157.137 13.9641 159.569 14.8656 162.09 14.8856H162.44C163.084 14.8844 163.715 14.7138 164.269 14.3915C164.822 14.0693 165.278 13.6071 165.589 13.0529C165.901 12.4987 166.055 11.8727 166.038 11.2398C166.02 10.6069 165.831 9.99017 165.49 9.45353C164.387 7.79158 162.99 6.33798 161.366 5.16192C157.953 2.73717 153.825 1.48483 149.618 1.59809C146.119 1.53966 142.665 2.38562 139.602 4.05152C136.702 5.65708 134.324 8.03707 132.741 10.9166C131.118 14.0097 130.271 17.4403 130.271 20.9216C130.271 24.4028 131.118 27.8334 132.741 30.9265C134.33 33.7943 136.707 36.1632 139.602 37.7616L139.884 37.9116V49.2934C139.884 51.3469 139.055 53.3164 137.579 54.7684C136.104 56.2205 134.103 57.0363 132.017 57.0363C129.93 57.0363 127.929 56.2205 126.454 54.7684C124.978 53.3164 124.15 51.3469 124.15 49.2934V4.61423C124.101 3.42168 123.585 2.29395 122.71 1.46717C121.836 0.640395 120.67 0.17868 119.458 0.17868C118.245 0.17868 117.079 0.640395 116.205 1.46717C115.33 2.29395 114.814 3.42168 114.766 4.61423V13.9852C113.777 12.5512 112.423 11.3974 110.84 10.639C109.126 9.79997 107.234 9.37312 105.321 9.39351C102.897 9.36572 100.516 10.0218 98.4598 11.2842C96.3608 12.6037 94.6788 14.4749 93.6039 16.6862C92.4281 19.2547 91.8201 22.0397 91.8201 24.8568C91.8201 27.6739 92.4281 30.4589 93.6039 33.0273C94.6772 35.2556 96.3583 37.1466 98.4598 38.4894C100.511 39.7651 102.894 40.4296 105.321 40.4026C107.297 40.4484 109.253 40.002 111.007 39.1046C112.557 38.3138 113.857 37.1201 114.766 35.6533V50.0437C114.766 54.5467 116.583 58.8654 119.818 62.0495C123.053 65.2337 127.441 67.0225 132.017 67.0225C136.592 67.0225 140.98 65.2337 144.215 62.0495C147.45 58.8654 149.268 54.5467 149.268 50.0437V40.29H149.618C153.821 40.3998 157.946 39.1564 161.366 36.7487C163.043 35.5414 164.477 34.0378 165.596 32.3146C165.949 31.778 166.137 31.1528 166.138 30.5139C166.143 30.0562 166.055 29.602 165.881 29.1776C165.707 28.7532 165.449 28.367 165.122 28.0412C164.796 27.7155 164.407 27.4566 163.978 27.2796C163.549 27.1027 163.088 27.011 162.623 27.0101ZM112.806 30.3563C112.196 30.9914 111.46 31.4972 110.644 31.8429C109.828 32.1886 108.949 32.3669 108.061 32.3669C107.173 32.3669 106.294 32.1886 105.478 31.8429C104.662 31.4972 103.926 30.9914 103.316 30.3563C101.956 28.8558 101.255 26.8869 101.364 24.8793C101.306 23.8916 101.449 22.9024 101.784 21.9697C102.119 21.0369 102.64 20.1794 103.316 19.4473C103.93 18.8189 104.667 18.319 105.483 17.9776C106.298 17.6362 107.175 17.4602 108.061 17.4602C108.947 17.4602 109.824 17.6362 110.64 17.9776C111.455 18.319 112.192 18.8189 112.806 19.4473C114.07 20.9933 114.759 22.9178 114.759 24.9018C114.759 26.8858 114.07 28.8103 112.806 30.3563Z" fill="#00A651"/>
<path d="M174.454 16.6862C175.527 14.4734 177.209 12.6016 179.31 11.2842C181.367 10.0218 183.747 9.3657 186.171 9.3935C188.144 9.35215 190.097 9.7984 191.85 10.6915C193.39 11.4749 194.688 12.6514 195.608 14.0977V9.82865H204.992V39.9749H195.608V35.7058C194.655 37.1421 193.343 38.3127 191.797 39.1046C190.045 40.001 188.091 40.4475 186.118 40.4026C183.708 40.4254 181.344 39.7609 179.31 38.4894C177.207 37.1487 175.525 35.2571 174.454 33.0273C173.278 30.4589 172.67 27.6739 172.67 24.8568C172.67 22.0396 173.278 19.2547 174.454 16.6862ZM193.664 19.4472C193.049 18.8187 192.312 18.3187 191.496 17.9771C190.68 17.6356 189.802 17.4596 188.915 17.4596C188.028 17.4596 187.151 17.6356 186.335 17.9771C185.519 18.3187 184.781 18.8187 184.166 19.4472C183.493 20.1814 182.974 21.0393 182.639 21.9715C182.304 22.9038 182.16 23.8919 182.215 24.8793C182.109 26.8863 182.81 28.8537 184.166 30.3563C184.777 30.9916 185.514 31.4976 186.33 31.8434C187.147 32.1891 188.026 32.3675 188.915 32.3675C189.804 32.3675 190.684 32.1891 191.5 31.8434C192.317 31.4976 193.053 30.9916 193.664 30.3563C194.923 28.808 195.608 26.8844 195.608 24.9018C195.608 22.9192 194.923 20.9956 193.664 19.4472Z" fill="#DF1B50"/>
<path d="M101.029 36.6812L101.158 37.0038Z" fill="#100E0E"/>
</g>
<defs>
<clipPath id="clip0_72_65">
<rect width="205" height="67" fill="white"/>
</clipPath>
</defs>
</svg>
