<svg width="174" height="55" viewBox="0 0 174 55" fill="none" xmlns="http://www.w3.org/2000/svg">
<g clip-path="url(#clip0_395_308)">
<path d="M30.5 8.10864C31.9257 9.5355 32.6369 11.5155 32.6337 14.0487V25.1179H26.7249V14.8312C26.799 13.8008 26.4518 12.7836 25.7594 12.0027C25.0053 11.3556 24.0357 10.9987 23.0319 10.9987C22.028 10.9987 21.0585 11.3556 20.3044 12.0027C19.9572 12.3875 19.6911 12.8354 19.5213 13.3208C19.3515 13.8061 19.2813 14.3194 19.3147 14.8312V25.1179H13.3818V14.8312C13.4145 14.3191 13.3436 13.8056 13.1729 13.3203C13.0023 12.8349 12.7353 12.3872 12.3873 12.0027C11.6332 11.3556 10.6636 10.9987 9.65978 10.9987C8.65592 10.9987 7.68639 11.3556 6.93226 12.0027C6.23984 12.7836 5.89265 13.8008 5.96677 14.8312V25.1179H-0.00964355V6.17577H5.93297V8.53292C6.5532 7.72819 7.36295 7.08134 8.2936 6.6472C9.32564 6.17299 10.4552 5.93593 11.5956 5.9542C12.9573 5.93103 14.3027 6.24571 15.5058 6.86877C16.6426 7.46994 17.5779 8.37835 18.1996 9.48522C18.8881 8.42995 19.8313 7.5558 20.9464 6.93948C22.0956 6.28359 23.4049 5.94316 24.736 5.9542C27.1529 5.9762 29.0743 6.69435 30.5 8.10864Z" fill="#DF1B50"/>
<path d="M55.54 17.0375H42.0907C42.1083 18.0492 42.525 19.0151 43.2541 19.7341C43.935 20.3589 44.84 20.6975 45.774 20.6769C46.4204 20.7233 47.0655 20.5721 47.62 20.2443C48.1744 19.9166 48.6107 19.4285 48.8684 18.8478H55.1924C54.8745 20.0812 54.2755 21.2286 53.4401 22.2044C52.5791 23.2183 51.4905 24.0248 50.2588 24.5615C48.9123 25.142 47.4533 25.4315 45.9816 25.4101C44.2145 25.4414 42.4684 25.0325 40.9079 24.2221C39.439 23.4409 38.2321 22.2623 37.4322 20.8278C36.5704 19.2335 36.1447 17.4489 36.1963 15.6468C36.1536 13.8521 36.5771 12.0762 37.4273 10.4846C38.2178 9.04795 39.4208 7.86817 40.8886 7.0903C42.455 6.31486 44.1853 5.90801 45.9414 5.90228C47.6975 5.89655 49.4306 6.29209 51.0022 7.05729C52.4457 7.81108 53.6346 8.95734 54.4249 10.3573C55.276 11.8859 55.7021 13.6056 55.6607 15.3451C55.655 15.911 55.6147 16.4762 55.54 17.0375V17.0375ZM49.5636 13.8129C49.5801 13.369 49.495 12.9272 49.3146 12.5194C49.1343 12.1117 48.8631 11.7483 48.5209 11.4558C47.7941 10.8561 46.8649 10.5419 45.914 10.5742C44.9961 10.5466 44.0996 10.8485 43.3941 11.4227C42.6799 12.0445 42.2275 12.9029 42.1245 13.8318L49.5636 13.8129Z" fill="#DF1B50"/>
<path d="M102.984 16.9715C101.264 16.9584 99.594 17.5339 98.2631 18.598C97.2653 19.4513 96.0011 19.9497 94.6763 20.0123C93.6552 20.0116 92.6483 19.7775 91.7364 19.3287C91.1688 19.0212 90.6594 18.621 90.2302 18.1454C89.0909 16.8883 88.5229 15.2241 88.5261 13.153C88.5293 11.0818 89.0974 9.41922 90.2302 8.16521C90.6599 7.68701 91.1711 7.28507 91.7412 6.97721C92.6511 6.52822 93.6569 6.29561 94.6763 6.29835C96.0197 6.36537 97.2991 6.87944 98.3018 7.75507C99.51 8.77423 101.05 9.34069 102.646 9.35323H102.869C103.276 9.35246 103.676 9.24528 104.026 9.0428C104.377 8.84032 104.666 8.54991 104.863 8.2017C105.06 7.85348 105.158 7.46013 105.147 7.06245C105.136 6.66478 105.016 6.27725 104.8 5.94006C104.101 4.89579 103.217 3.98244 102.188 3.24347C100.027 1.71991 97.4129 0.933011 94.7487 1.00418C92.5326 0.967462 90.3454 1.49902 88.4054 2.54577C86.5695 3.5546 85.0633 5.05004 84.0607 6.85935C83.0329 8.80286 82.4965 10.9585 82.4965 13.1459C82.4965 15.3333 83.0329 17.4889 84.0607 19.4324C85.0668 21.2343 86.5726 22.7228 88.4054 23.7271L88.5841 23.8214V30.973C88.5841 32.2634 88.0592 33.5008 87.1249 34.4132C86.1906 35.3256 84.9234 35.8382 83.6021 35.8382C82.2808 35.8382 81.0136 35.3256 80.0793 34.4132C79.145 33.5008 78.6202 32.2634 78.6202 30.973V2.89934C78.5892 2.15001 78.2627 1.44141 77.7088 0.921914C77.155 0.402418 76.4168 0.112305 75.6489 0.112305C74.8809 0.112305 74.1427 0.402418 73.5889 0.921914C73.0351 1.44141 72.7085 2.15001 72.6776 2.89934V8.7875C72.0513 7.88642 71.1941 7.16146 70.1914 6.68493C69.1062 6.15774 67.9083 5.88954 66.6963 5.90235C65.1616 5.88488 63.6539 6.29714 62.3516 7.09035C61.0224 7.91946 59.9572 9.09521 59.2765 10.4847C58.5319 12.0985 58.1469 13.8484 58.1469 15.6185C58.1469 17.3886 58.5319 19.1386 59.2765 20.7524C59.9562 22.1525 61.0208 23.3407 62.3516 24.1844C63.6508 24.9861 65.1596 25.4035 66.6963 25.3866C67.9479 25.4154 69.1867 25.1348 70.2976 24.571C71.2789 24.0741 72.102 23.3241 72.6776 22.4024V31.4445C72.6776 34.2739 73.8285 36.9875 75.8773 38.9882C77.926 40.9889 80.7047 42.1129 83.6021 42.1129C86.4995 42.1129 89.2782 40.9889 91.3269 38.9882C93.3757 36.9875 94.5267 34.2739 94.5267 31.4445V25.3159H94.7487C97.4104 25.3849 100.022 24.6036 102.188 23.0907C103.25 22.3321 104.158 21.3873 104.867 20.3046C105.09 19.9674 105.209 19.5746 105.21 19.1731C105.213 18.8855 105.158 18.6002 105.048 18.3335C104.937 18.0668 104.774 17.8241 104.567 17.6194C104.36 17.4148 104.114 17.2521 103.842 17.1409C103.57 17.0297 103.279 16.9721 102.984 16.9715ZM71.4369 19.0741C71.0503 19.4732 70.5844 19.791 70.0677 20.0082C69.551 20.2254 68.9943 20.3375 68.4318 20.3375C67.8692 20.3375 67.3126 20.2254 66.7959 20.0082C66.2792 19.791 65.8133 19.4732 65.4267 19.0741C64.5657 18.1313 64.1214 16.8942 64.1909 15.6327C64.154 15.0121 64.2443 14.3905 64.4565 13.8044C64.6687 13.2184 64.9985 12.6795 65.4267 12.2195C65.8158 11.8247 66.2825 11.5106 66.7989 11.2961C67.3153 11.0815 67.8706 10.971 68.4318 10.971C68.9929 10.971 69.5483 11.0815 70.0647 11.2961C70.581 11.5106 71.0477 11.8247 71.4369 12.2195C72.2369 13.191 72.6731 14.4002 72.6731 15.6468C72.6731 16.8935 72.2369 18.1027 71.4369 19.0741Z" fill="#00A651"/>
<path d="M110.477 10.4846C111.156 9.09417 112.221 7.91804 113.552 7.09029C114.854 6.29708 116.362 5.88482 117.897 5.90229C119.146 5.87631 120.383 6.1567 121.493 6.71786C122.468 7.21012 123.29 7.94934 123.873 8.85815V6.17571H129.816V25.1178H123.873V22.4354C123.27 23.3379 122.438 24.0734 121.459 24.5709C120.35 25.1342 119.113 25.4147 117.863 25.3865C116.337 25.4009 114.84 24.9833 113.552 24.1844C112.22 23.342 111.155 22.1534 110.477 20.7524C109.732 19.1385 109.347 17.3886 109.347 15.6185C109.347 13.8484 109.732 12.0985 110.477 10.4846ZM122.642 12.2195C122.252 11.8245 121.785 11.5103 121.268 11.2957C120.752 11.0811 120.196 10.9705 119.634 10.9705C119.073 10.9705 118.517 11.0811 118 11.2957C117.484 11.5103 117.016 11.8245 116.627 12.2195C116.201 12.6808 115.872 13.2198 115.66 13.8056C115.448 14.3913 115.357 15.0122 115.391 15.6326C115.324 16.8937 115.768 18.1299 116.627 19.0741C117.014 19.4732 117.48 19.7912 117.997 20.0084C118.514 20.2257 119.071 20.3378 119.634 20.3378C120.197 20.3378 120.754 20.2257 121.271 20.0084C121.789 19.7912 122.255 19.4732 122.642 19.0741C123.439 18.1012 123.873 16.8925 123.873 15.6468C123.873 14.401 123.439 13.1923 122.642 12.2195Z" fill="#DF1B50"/>
<path d="M63.9784 23.0482L64.0605 23.2509Z" fill="#100E0E"/>
</g>
<path d="M118.193 28.9047V43.1234H115.264L109.551 33.5922V43.1234H106.621V28.9047H109.551L115.273 38.4457V28.9047H118.193ZM125.43 43.3187C124.609 43.3187 123.874 43.1885 123.223 42.9281C122.572 42.6612 122.018 42.2933 121.562 41.8246C121.113 41.3558 120.768 40.8122 120.527 40.1937C120.286 39.5687 120.166 38.9047 120.166 38.2015V37.8109C120.166 37.0101 120.28 36.2777 120.508 35.6136C120.736 34.9496 121.061 34.3734 121.484 33.8851C121.914 33.3969 122.435 33.0225 123.047 32.7621C123.659 32.4952 124.349 32.3617 125.117 32.3617C125.866 32.3617 126.53 32.4854 127.109 32.7328C127.689 32.9802 128.174 33.3317 128.564 33.7875C128.962 34.2432 129.261 34.7901 129.463 35.4281C129.665 36.0596 129.766 36.7627 129.766 37.5375V38.7094H121.367V36.8344H127.002V36.6195C127.002 36.2289 126.93 35.8806 126.787 35.5746C126.65 35.2621 126.442 35.0147 126.162 34.8324C125.882 34.6501 125.524 34.559 125.088 34.559C124.717 34.559 124.398 34.6403 124.131 34.8031C123.864 34.9659 123.646 35.1937 123.477 35.4867C123.314 35.7797 123.19 36.1247 123.105 36.5219C123.027 36.9125 122.988 37.3422 122.988 37.8109V38.2015C122.988 38.6247 123.047 39.0153 123.164 39.3734C123.288 39.7315 123.46 40.0407 123.682 40.3011C123.91 40.5616 124.183 40.7634 124.502 40.9066C124.827 41.0498 125.195 41.1215 125.605 41.1215C126.113 41.1215 126.585 41.0238 127.021 40.8285C127.464 40.6267 127.845 40.3239 128.164 39.9203L129.531 41.4047C129.31 41.7237 129.007 42.0297 128.623 42.3226C128.245 42.6156 127.79 42.8565 127.256 43.0453C126.722 43.2276 126.113 43.3187 125.43 43.3187Z" fill="#00A651"/>
<path d="M134.385 40.389L136.582 32.557H138.369L137.793 35.6332L135.596 43.1234H134.102L134.385 40.389ZM133.271 32.557L134.844 40.3793L134.99 43.1234H133.232L130.557 32.557H133.271ZM140.381 40.2523L141.914 32.557H144.639L141.963 43.1234H140.215L140.381 40.2523ZM138.613 32.557L140.801 40.3304L141.104 43.1234H139.6L137.402 35.6429L136.846 32.557H138.613ZM151.768 40.2035C151.768 40.0017 151.709 39.8194 151.592 39.6566C151.475 39.4939 151.257 39.3441 150.938 39.2074C150.625 39.0642 150.173 38.934 149.58 38.8168C149.046 38.6996 148.548 38.5531 148.086 38.3773C147.63 38.195 147.233 37.9769 146.895 37.723C146.562 37.4691 146.302 37.1696 146.113 36.8246C145.924 36.473 145.83 36.0726 145.83 35.6234C145.83 35.1807 145.924 34.764 146.113 34.3734C146.309 33.9828 146.585 33.6377 146.943 33.3383C147.308 33.0323 147.751 32.7946 148.271 32.6254C148.799 32.4496 149.391 32.3617 150.049 32.3617C150.967 32.3617 151.755 32.5082 152.412 32.8011C153.076 33.0941 153.584 33.4978 153.936 34.0121C154.294 34.5199 154.473 35.0993 154.473 35.7504H151.66C151.66 35.4769 151.602 35.2328 151.484 35.0179C151.374 34.7966 151.198 34.6241 150.957 34.5004C150.723 34.3702 150.417 34.3051 150.039 34.3051C149.727 34.3051 149.456 34.3604 149.229 34.4711C149.001 34.5752 148.825 34.7185 148.701 34.9008C148.584 35.0765 148.525 35.2719 148.525 35.4867C148.525 35.6495 148.558 35.7959 148.623 35.9261C148.695 36.0498 148.809 36.1638 148.965 36.2679C149.121 36.3721 149.323 36.4698 149.57 36.5609C149.824 36.6455 150.137 36.7237 150.508 36.7953C151.27 36.9515 151.95 37.1566 152.549 37.4105C153.148 37.6579 153.623 37.9965 153.975 38.4261C154.326 38.8493 154.502 39.406 154.502 40.0961C154.502 40.5648 154.398 40.9945 154.189 41.3851C153.981 41.7758 153.682 42.1176 153.291 42.4105C152.9 42.697 152.432 42.9216 151.885 43.0844C151.344 43.2406 150.736 43.3187 150.059 43.3187C149.076 43.3187 148.242 43.1429 147.559 42.7914C146.882 42.4398 146.367 41.9939 146.016 41.4535C145.671 40.9066 145.498 40.3467 145.498 39.7738H148.164C148.177 40.1579 148.275 40.4672 148.457 40.7015C148.646 40.9359 148.883 41.1052 149.17 41.2094C149.463 41.3135 149.779 41.3656 150.117 41.3656C150.482 41.3656 150.785 41.3168 151.025 41.2191C151.266 41.1149 151.449 40.9782 151.572 40.809C151.702 40.6332 151.768 40.4314 151.768 40.2035Z" fill="#DF1B50"/>
<defs>
<clipPath id="clip0_395_308">
<rect width="129.82" height="42.0988" fill="white"/>
</clipPath>
</defs>
</svg>
