<svg width="39" height="39" viewBox="0 0 39 39" fill="none" xmlns="http://www.w3.org/2000/svg">
<path d="M19.4138 0.172363C8.96379 0.172363 0.413788 8.72236 0.413788 19.1724C0.413788 29.6224 8.96379 38.1724 19.4138 38.1724C29.8638 38.1724 38.4138 29.6224 38.4138 19.1724C38.4138 8.72236 29.8638 0.172363 19.4138 0.172363ZM25.1138 21.0724H19.4138C18.2738 21.0724 17.5138 20.3124 17.5138 19.1724V9.67236C17.5138 8.53236 18.2738 7.77236 19.4138 7.77236C20.5538 7.77236 21.3138 8.53236 21.3138 9.67236V17.2724H25.1138C26.2538 17.2724 27.0138 18.0324 27.0138 19.1724C27.0138 20.3124 26.2538 21.0724 25.1138 21.0724Z" fill="white"/>
</svg>
